<mxfile host="Electron" agent="Mozilla/5.0 (Windows NT 10.0; Win64; x64) AppleWebKit/537.36 (KHTML, like Gecko) draw.io/26.0.4 Chrome/128.0.6613.186 Electron/32.2.5 Safari/537.36" version="26.0.4">
  <diagram name="Página-1" id="v0I3-2rEsh6XnJ5ouGjw">
    <mxGraphModel dx="2280" dy="929" grid="1" gridSize="10" guides="1" tooltips="1" connect="1" arrows="1" fold="1" page="0" pageScale="1" pageWidth="1654" pageHeight="2336" math="0" shadow="0">
      <root>
        <mxCell id="0" />
        <mxCell id="1" parent="0" />
        <mxCell id="F1pNL2VdmpR060pusoOi-2" value="&lt;table cellpadding=&quot;5&quot; cellspacing=&quot;0&quot; style=&quot;width: 100%; height: 100%;&quot;&gt;&lt;tbody&gt;&lt;tr&gt;&lt;td height=&quot;50%&quot;&gt;&lt;/td&gt;&lt;/tr&gt;&lt;tr&gt;&lt;td align=&quot;center&quot; height=&quot;50%&quot;&gt;&lt;font&gt;CLIENTE&lt;/font&gt;&lt;/td&gt;&lt;/tr&gt;&lt;/tbody&gt;&lt;/table&gt;" style="strokeWidth=2;html=1;shape=mxgraph.lean_mapping.outside_sources;whiteSpace=wrap;align=center;fontSize=16;" parent="1" vertex="1">
          <mxGeometry x="3061" y="220" width="190" height="140" as="geometry" />
        </mxCell>
        <mxCell id="F1pNL2VdmpR060pusoOi-4" value="&lt;font&gt;PROVEEDOR&amp;nbsp;&lt;/font&gt;" style="strokeWidth=2;html=1;shape=mxgraph.lean_mapping.outside_sources;whiteSpace=wrap;align=center;fontSize=16;" parent="1" vertex="1">
          <mxGeometry x="-140" y="210" width="190" height="140" as="geometry" />
        </mxCell>
        <mxCell id="FhXdsEAeTxi8pYCRALSn-1" style="edgeStyle=orthogonalEdgeStyle;rounded=0;orthogonalLoop=1;jettySize=auto;html=1;entryX=0.5;entryY=0;entryDx=0;entryDy=0;fontSize=16;" parent="1" source="F1pNL2VdmpR060pusoOi-5" target="F1pNL2VdmpR060pusoOi-9" edge="1">
          <mxGeometry relative="1" as="geometry" />
        </mxCell>
        <mxCell id="F1pNL2VdmpR060pusoOi-5" value="Sistema MES incorporado" style="strokeWidth=2;html=1;shape=mxgraph.lean_mapping.manufacturing_process;fontSize=16;verticalAlign=middle;html=1;align=center;whiteSpace=wrap;" parent="1" vertex="1">
          <mxGeometry x="1440" y="200" width="230" height="140" as="geometry" />
        </mxCell>
        <mxCell id="F1pNL2VdmpR060pusoOi-6" value="CONTROL DE PRODUCCION" style="text;fontSize=16;spacingLeft=2;verticalAlign=top;html=1;align=center;spacingTop=-5;resizeWidth=1;whiteSpace=wrap;" parent="F1pNL2VdmpR060pusoOi-5" vertex="1">
          <mxGeometry width="230" height="50" as="geometry" />
        </mxCell>
        <mxCell id="FhXdsEAeTxi8pYCRALSn-4" style="rounded=0;orthogonalLoop=1;jettySize=auto;html=1;entryX=0.5;entryY=0;entryDx=0;entryDy=0;" parent="1" source="F1pNL2VdmpR060pusoOi-9" target="F1pNL2VdmpR060pusoOi-67" edge="1">
          <mxGeometry relative="1" as="geometry" />
        </mxCell>
        <mxCell id="FhXdsEAeTxi8pYCRALSn-5" style="rounded=0;orthogonalLoop=1;jettySize=auto;html=1;entryX=0.5;entryY=0;entryDx=0;entryDy=0;" parent="1" source="F1pNL2VdmpR060pusoOi-9" target="F1pNL2VdmpR060pusoOi-62" edge="1">
          <mxGeometry relative="1" as="geometry" />
        </mxCell>
        <mxCell id="FhXdsEAeTxi8pYCRALSn-6" style="rounded=0;orthogonalLoop=1;jettySize=auto;html=1;entryX=0.5;entryY=0;entryDx=0;entryDy=0;" parent="1" source="F1pNL2VdmpR060pusoOi-9" target="F1pNL2VdmpR060pusoOi-57" edge="1">
          <mxGeometry relative="1" as="geometry" />
        </mxCell>
        <mxCell id="FhXdsEAeTxi8pYCRALSn-7" style="rounded=0;orthogonalLoop=1;jettySize=auto;html=1;entryX=0.5;entryY=0;entryDx=0;entryDy=0;" parent="1" source="F1pNL2VdmpR060pusoOi-9" target="F1pNL2VdmpR060pusoOi-46" edge="1">
          <mxGeometry relative="1" as="geometry" />
        </mxCell>
        <mxCell id="FhXdsEAeTxi8pYCRALSn-8" style="rounded=0;orthogonalLoop=1;jettySize=auto;html=1;entryX=0.5;entryY=0;entryDx=0;entryDy=0;" parent="1" source="F1pNL2VdmpR060pusoOi-9" target="F1pNL2VdmpR060pusoOi-43" edge="1">
          <mxGeometry relative="1" as="geometry" />
        </mxCell>
        <mxCell id="FhXdsEAeTxi8pYCRALSn-9" style="rounded=0;orthogonalLoop=1;jettySize=auto;html=1;entryX=0.5;entryY=0;entryDx=0;entryDy=0;" parent="1" source="F1pNL2VdmpR060pusoOi-9" target="F1pNL2VdmpR060pusoOi-35" edge="1">
          <mxGeometry relative="1" as="geometry" />
        </mxCell>
        <mxCell id="FhXdsEAeTxi8pYCRALSn-10" style="rounded=0;orthogonalLoop=1;jettySize=auto;html=1;entryX=0.5;entryY=0;entryDx=0;entryDy=0;" parent="1" source="F1pNL2VdmpR060pusoOi-9" target="F1pNL2VdmpR060pusoOi-33" edge="1">
          <mxGeometry relative="1" as="geometry" />
        </mxCell>
        <mxCell id="FhXdsEAeTxi8pYCRALSn-11" style="rounded=0;orthogonalLoop=1;jettySize=auto;html=1;entryX=0.75;entryY=0;entryDx=0;entryDy=0;" parent="1" source="F1pNL2VdmpR060pusoOi-9" target="I_ms-DkJsqw6G00hhyOn-2" edge="1">
          <mxGeometry relative="1" as="geometry" />
        </mxCell>
        <mxCell id="FhXdsEAeTxi8pYCRALSn-15" style="edgeStyle=orthogonalEdgeStyle;rounded=0;orthogonalLoop=1;jettySize=auto;html=1;entryX=0.5;entryY=0;entryDx=0;entryDy=0;" parent="1" source="F1pNL2VdmpR060pusoOi-9" target="FhXdsEAeTxi8pYCRALSn-14" edge="1">
          <mxGeometry relative="1" as="geometry" />
        </mxCell>
        <mxCell id="F1pNL2VdmpR060pusoOi-9" value="&lt;span style=&quot;background-color: transparent; color: light-dark(rgb(0, 0, 0), rgb(255, 255, 255));&quot;&gt;Supervisor de producción&amp;nbsp;&lt;/span&gt;" style="strokeWidth=2;html=1;shape=mxgraph.lean_mapping.schedule;whiteSpace=wrap;align=center;fontSize=16;" parent="1" vertex="1">
          <mxGeometry x="1440" y="410" width="230" height="130" as="geometry" />
        </mxCell>
        <mxCell id="F1pNL2VdmpR060pusoOi-10" value="&lt;font&gt;Ordenes Semanales&lt;/font&gt;&lt;div&gt;&lt;font&gt;2157,60 kg&lt;/font&gt;&lt;/div&gt;" style="strokeWidth=2;html=1;shape=mxgraph.lean_mapping.schedule;whiteSpace=wrap;align=center;fontSize=16;" parent="1" vertex="1">
          <mxGeometry x="720" y="410" width="230" height="130" as="geometry" />
        </mxCell>
        <mxCell id="F1pNL2VdmpR060pusoOi-11" value="&lt;font&gt;Pronostico Semanal&lt;/font&gt;&lt;div&gt;&lt;font&gt;9400 juguetes&amp;nbsp;&lt;/font&gt;&lt;/div&gt;" style="strokeWidth=2;html=1;shape=mxgraph.lean_mapping.schedule;whiteSpace=wrap;align=center;fontSize=16;" parent="1" vertex="1">
          <mxGeometry x="720" y="60" width="230" height="130" as="geometry" />
        </mxCell>
        <mxCell id="F1pNL2VdmpR060pusoOi-12" value="&lt;span&gt;Ordenes Diarias&lt;/span&gt;&lt;br&gt;&lt;div&gt;&lt;font&gt;431,52 kg&lt;/font&gt;&lt;/div&gt;" style="strokeWidth=2;html=1;shape=mxgraph.lean_mapping.schedule;whiteSpace=wrap;align=center;fontSize=16;" parent="1" vertex="1">
          <mxGeometry x="2166" y="410" width="230" height="130" as="geometry" />
        </mxCell>
        <mxCell id="F1pNL2VdmpR060pusoOi-13" value="&lt;font&gt;Pronostico Mensual&lt;/font&gt;&lt;div&gt;&lt;span&gt;37600 juguetes&lt;/span&gt;&lt;/div&gt;" style="strokeWidth=2;html=1;shape=mxgraph.lean_mapping.schedule;whiteSpace=wrap;align=center;fontSize=16;" parent="1" vertex="1">
          <mxGeometry x="2146" y="60" width="230" height="130" as="geometry" />
        </mxCell>
        <mxCell id="F1pNL2VdmpR060pusoOi-14" value="" style="shape=mxgraph.lean_mapping.electronic_info_flow_edge;html=1;rounded=0;entryX=1;entryY=0.5;entryDx=0;entryDy=0;exitX=0.005;exitY=0.625;exitDx=0;exitDy=0;exitPerimeter=0;fontSize=16;" parent="1" source="F1pNL2VdmpR060pusoOi-2" target="F1pNL2VdmpR060pusoOi-13" edge="1">
          <mxGeometry x="-0.1341" y="-49" width="100" height="100" relative="1" as="geometry">
            <mxPoint x="2466" y="300" as="sourcePoint" />
            <mxPoint x="2566" y="200" as="targetPoint" />
            <mxPoint x="-1" as="offset" />
          </mxGeometry>
        </mxCell>
        <mxCell id="F1pNL2VdmpR060pusoOi-15" value="" style="shape=mxgraph.lean_mapping.electronic_info_flow_edge;html=1;rounded=0;entryX=1;entryY=0.5;entryDx=0;entryDy=0;exitX=-0.003;exitY=0.596;exitDx=0;exitDy=0;exitPerimeter=0;fontSize=16;" parent="1" source="F1pNL2VdmpR060pusoOi-2" target="F1pNL2VdmpR060pusoOi-12" edge="1">
          <mxGeometry width="100" height="100" relative="1" as="geometry">
            <mxPoint x="2466" y="560" as="sourcePoint" />
            <mxPoint x="2566" y="460" as="targetPoint" />
          </mxGeometry>
        </mxCell>
        <mxCell id="F1pNL2VdmpR060pusoOi-16" value="" style="shape=mxgraph.lean_mapping.electronic_info_flow_edge;html=1;rounded=0;entryX=1.006;entryY=0.654;entryDx=0;entryDy=0;entryPerimeter=0;exitX=0;exitY=0.5;exitDx=0;exitDy=0;fontSize=16;" parent="1" source="F1pNL2VdmpR060pusoOi-12" target="F1pNL2VdmpR060pusoOi-5" edge="1">
          <mxGeometry width="100" height="100" relative="1" as="geometry">
            <mxPoint x="1760" y="460" as="sourcePoint" />
            <mxPoint x="1860" y="360" as="targetPoint" />
          </mxGeometry>
        </mxCell>
        <mxCell id="F1pNL2VdmpR060pusoOi-18" value="" style="shape=mxgraph.lean_mapping.electronic_info_flow_edge;html=1;rounded=0;entryX=1;entryY=0.5;entryDx=0;entryDy=0;exitX=0;exitY=0.5;exitDx=0;exitDy=0;fontSize=16;" parent="1" source="F1pNL2VdmpR060pusoOi-13" target="F1pNL2VdmpR060pusoOi-5" edge="1">
          <mxGeometry width="100" height="100" relative="1" as="geometry">
            <mxPoint x="1720" y="150" as="sourcePoint" />
            <mxPoint x="1820" y="50" as="targetPoint" />
          </mxGeometry>
        </mxCell>
        <mxCell id="F1pNL2VdmpR060pusoOi-19" value="" style="shape=mxgraph.lean_mapping.electronic_info_flow_edge;html=1;rounded=0;entryX=1;entryY=0.5;entryDx=0;entryDy=0;exitX=0;exitY=0.5;exitDx=0;exitDy=0;fontSize=16;" parent="1" source="F1pNL2VdmpR060pusoOi-5" target="F1pNL2VdmpR060pusoOi-11" edge="1">
          <mxGeometry width="100" height="100" relative="1" as="geometry">
            <mxPoint x="1190" y="340" as="sourcePoint" />
            <mxPoint x="1290" y="240" as="targetPoint" />
          </mxGeometry>
        </mxCell>
        <mxCell id="F1pNL2VdmpR060pusoOi-20" value="" style="shape=mxgraph.lean_mapping.electronic_info_flow_edge;html=1;rounded=0;entryX=1;entryY=0.5;entryDx=0;entryDy=0;exitX=0;exitY=0.5;exitDx=0;exitDy=0;fontSize=16;" parent="1" source="F1pNL2VdmpR060pusoOi-5" target="F1pNL2VdmpR060pusoOi-10" edge="1">
          <mxGeometry width="100" height="100" relative="1" as="geometry">
            <mxPoint x="1130" y="350" as="sourcePoint" />
            <mxPoint x="1230" y="250" as="targetPoint" />
          </mxGeometry>
        </mxCell>
        <mxCell id="F1pNL2VdmpR060pusoOi-21" value="" style="shape=mxgraph.lean_mapping.electronic_info_flow_edge;html=1;rounded=0;entryX=1.01;entryY=0.596;entryDx=0;entryDy=0;entryPerimeter=0;exitX=-0.013;exitY=0.425;exitDx=0;exitDy=0;exitPerimeter=0;fontSize=16;" parent="1" source="F1pNL2VdmpR060pusoOi-11" target="F1pNL2VdmpR060pusoOi-4" edge="1">
          <mxGeometry width="100" height="100" relative="1" as="geometry">
            <mxPoint x="160" y="340" as="sourcePoint" />
            <mxPoint x="260" y="240" as="targetPoint" />
          </mxGeometry>
        </mxCell>
        <mxCell id="F1pNL2VdmpR060pusoOi-22" value="" style="shape=mxgraph.lean_mapping.electronic_info_flow_edge;html=1;rounded=0;entryX=1;entryY=0.5;entryDx=0;entryDy=0;exitX=0;exitY=0.5;exitDx=0;exitDy=0;fontSize=16;" parent="1" source="F1pNL2VdmpR060pusoOi-10" target="F1pNL2VdmpR060pusoOi-4" edge="1">
          <mxGeometry width="100" height="100" relative="1" as="geometry">
            <mxPoint x="30" y="630" as="sourcePoint" />
            <mxPoint x="130" y="530" as="targetPoint" />
          </mxGeometry>
        </mxCell>
        <mxCell id="F1pNL2VdmpR060pusoOi-24" value="" style="shape=flexArrow;html=1;rounded=0;exitX=0.5;exitY=1;exitDx=0;exitDy=0;entryX=0.5;entryY=0;entryDx=0;entryDy=0;fontSize=16;" parent="1" source="F1pNL2VdmpR060pusoOi-4" target="I_ms-DkJsqw6G00hhyOn-2" edge="1">
          <mxGeometry width="100" height="100" relative="1" as="geometry">
            <mxPoint x="170" y="530" as="sourcePoint" />
            <mxPoint x="177" y="746.0554285714284" as="targetPoint" />
          </mxGeometry>
        </mxCell>
        <mxCell id="F1pNL2VdmpR060pusoOi-28" value="" style="strokeWidth=2;html=1;shape=mxgraph.lean_mapping.truck_shipment;fontSize=16;" parent="1" vertex="1">
          <mxGeometry x="-173" y="460" width="100" height="100" as="geometry" />
        </mxCell>
        <mxCell id="F1pNL2VdmpR060pusoOi-32" value="Una vez generados los molde s plasticos, un operario se encarga de la separación individual de las piezas." style="strokeWidth=2;html=1;shape=mxgraph.lean_mapping.manufacturing_process;fontSize=16;verticalAlign=middle;html=1;align=center;whiteSpace=wrap;" parent="1" vertex="1">
          <mxGeometry x="240" y="800" width="230" height="140" as="geometry" />
        </mxCell>
        <mxCell id="F1pNL2VdmpR060pusoOi-33" value="Separar Piezas" style="text;fontSize=16;spacingLeft=2;verticalAlign=top;html=1;align=center;spacingTop=-5;resizeWidth=1;whiteSpace=wrap;" parent="F1pNL2VdmpR060pusoOi-32" vertex="1">
          <mxGeometry width="230" height="50" as="geometry" />
        </mxCell>
        <mxCell id="F1pNL2VdmpR060pusoOi-34" value="Ahora un operario toma las piezas separadas y les realiza un acabado, removiendo rebaba en su mayoria." style="strokeWidth=2;html=1;shape=mxgraph.lean_mapping.manufacturing_process;fontSize=16;verticalAlign=middle;html=1;align=center;whiteSpace=wrap;" parent="1" vertex="1">
          <mxGeometry x="640" y="800" width="230" height="140" as="geometry" />
        </mxCell>
        <mxCell id="F1pNL2VdmpR060pusoOi-35" value="Dar Acabados" style="text;fontSize=16;spacingLeft=2;verticalAlign=top;html=1;align=center;spacingTop=-5;resizeWidth=1;whiteSpace=wrap;" parent="F1pNL2VdmpR060pusoOi-34" vertex="1">
          <mxGeometry width="230" height="50" as="geometry" />
        </mxCell>
        <mxCell id="F1pNL2VdmpR060pusoOi-38" value="" style="verticalLabelPosition=bottom;html=1;verticalAlign=top;strokeWidth=2;shape=mxgraph.lean_mapping.push_arrow;fontSize=16;" parent="1" vertex="1">
          <mxGeometry x="470" y="855" width="168" height="30" as="geometry" />
        </mxCell>
        <mxCell id="F1pNL2VdmpR060pusoOi-41" value="" style="verticalLabelPosition=bottom;html=1;verticalAlign=top;strokeWidth=2;shape=mxgraph.lean_mapping.push_arrow;fontSize=16;" parent="1" vertex="1">
          <mxGeometry x="870" y="855" width="167" height="30" as="geometry" />
        </mxCell>
        <mxCell id="F1pNL2VdmpR060pusoOi-42" value="Los productos son ensambladas por una maquina la cual es alimentada con las piezas." style="strokeWidth=2;html=1;shape=mxgraph.lean_mapping.manufacturing_process;fontSize=16;verticalAlign=middle;html=1;align=center;whiteSpace=wrap;" parent="1" vertex="1">
          <mxGeometry x="1040" y="800" width="230" height="140" as="geometry" />
        </mxCell>
        <mxCell id="F1pNL2VdmpR060pusoOi-43" value="Ensamble" style="text;fontSize=16;spacingLeft=2;verticalAlign=top;html=1;align=center;spacingTop=-5;resizeWidth=1;whiteSpace=wrap;" parent="F1pNL2VdmpR060pusoOi-42" vertex="1">
          <mxGeometry width="230" height="50" as="geometry" />
        </mxCell>
        <mxCell id="F1pNL2VdmpR060pusoOi-45" value="Se aplican las calcomanias necesarias por producto." style="strokeWidth=2;html=1;shape=mxgraph.lean_mapping.manufacturing_process;fontSize=16;verticalAlign=middle;html=1;align=center;whiteSpace=wrap;" parent="1" vertex="1">
          <mxGeometry x="1841" y="800" width="230" height="140" as="geometry" />
        </mxCell>
        <mxCell id="F1pNL2VdmpR060pusoOi-46" value="Agregar Calcomanías&amp;nbsp;" style="text;fontSize=16;spacingLeft=2;verticalAlign=top;html=1;align=center;spacingTop=-5;resizeWidth=1;whiteSpace=wrap;" parent="F1pNL2VdmpR060pusoOi-45" vertex="1">
          <mxGeometry width="230" height="50" as="geometry" />
        </mxCell>
        <mxCell id="F1pNL2VdmpR060pusoOi-47" value="" style="verticalLabelPosition=bottom;html=1;verticalAlign=top;strokeWidth=2;shape=mxgraph.lean_mapping.push_arrow;fontSize=16;" parent="1" vertex="1">
          <mxGeometry x="1270" y="855" width="167" height="30" as="geometry" />
        </mxCell>
        <mxCell id="F1pNL2VdmpR060pusoOi-48" value="" style="verticalLabelPosition=bottom;html=1;verticalAlign=top;strokeWidth=2;shape=mxgraph.lean_mapping.inventory_box;fontSize=16;" parent="1" vertex="1">
          <mxGeometry x="505" y="920" width="100" height="90" as="geometry" />
        </mxCell>
        <mxCell id="F1pNL2VdmpR060pusoOi-50" value="" style="verticalLabelPosition=bottom;html=1;verticalAlign=top;strokeWidth=2;shape=mxgraph.lean_mapping.inventory_box;fontSize=16;" parent="1" vertex="1">
          <mxGeometry x="905" y="920" width="100" height="90" as="geometry" />
        </mxCell>
        <mxCell id="F1pNL2VdmpR060pusoOi-54" value="" style="verticalLabelPosition=bottom;html=1;verticalAlign=top;strokeWidth=2;shape=mxgraph.lean_mapping.inventory_box;fontSize=16;" parent="1" vertex="1">
          <mxGeometry x="1305" y="920" width="100" height="90" as="geometry" />
        </mxCell>
        <mxCell id="F1pNL2VdmpR060pusoOi-56" value="El producto es empaqueta y se dirige a una caja con capacidad de 25 por referencia." style="strokeWidth=2;html=1;shape=mxgraph.lean_mapping.manufacturing_process;fontSize=16;verticalAlign=middle;html=1;align=center;whiteSpace=wrap;" parent="1" vertex="1">
          <mxGeometry x="2241" y="800" width="230" height="140" as="geometry" />
        </mxCell>
        <mxCell id="F1pNL2VdmpR060pusoOi-57" value="Empaquetado" style="text;fontSize=16;spacingLeft=2;verticalAlign=top;html=1;align=center;spacingTop=-5;resizeWidth=1;whiteSpace=wrap;" parent="F1pNL2VdmpR060pusoOi-56" vertex="1">
          <mxGeometry width="230" height="20" as="geometry" />
        </mxCell>
        <mxCell id="F1pNL2VdmpR060pusoOi-58" value="" style="verticalLabelPosition=bottom;html=1;verticalAlign=top;strokeWidth=2;shape=mxgraph.lean_mapping.push_arrow;fontSize=16;" parent="1" vertex="1">
          <mxGeometry x="2071" y="855" width="167" height="30" as="geometry" />
        </mxCell>
        <mxCell id="F1pNL2VdmpR060pusoOi-60" value="" style="verticalLabelPosition=bottom;html=1;verticalAlign=top;strokeWidth=2;shape=mxgraph.lean_mapping.inventory_box;fontSize=16;" parent="1" vertex="1">
          <mxGeometry x="2106" y="920" width="100" height="90" as="geometry" />
        </mxCell>
        <mxCell id="F1pNL2VdmpR060pusoOi-61" value="Un robot se encarga del palletizado de las cajas, en pallet con capacidad de 20 cajas." style="strokeWidth=2;html=1;shape=mxgraph.lean_mapping.manufacturing_process;fontSize=16;verticalAlign=middle;html=1;align=center;whiteSpace=wrap;" parent="1" vertex="1">
          <mxGeometry x="2641" y="800" width="230" height="140" as="geometry" />
        </mxCell>
        <mxCell id="F1pNL2VdmpR060pusoOi-62" value="Paletizado&amp;nbsp;" style="text;fontSize=16;spacingLeft=2;verticalAlign=top;html=1;align=center;spacingTop=-5;resizeWidth=1;whiteSpace=wrap;" parent="F1pNL2VdmpR060pusoOi-61" vertex="1">
          <mxGeometry width="230" height="50" as="geometry" />
        </mxCell>
        <mxCell id="F1pNL2VdmpR060pusoOi-63" value="" style="verticalLabelPosition=bottom;html=1;verticalAlign=top;strokeWidth=2;shape=mxgraph.lean_mapping.push_arrow;fontSize=16;" parent="1" vertex="1">
          <mxGeometry x="2471" y="855" width="168" height="30" as="geometry" />
        </mxCell>
        <mxCell id="F1pNL2VdmpR060pusoOi-65" value="" style="verticalLabelPosition=bottom;html=1;verticalAlign=top;strokeWidth=2;shape=mxgraph.lean_mapping.inventory_box;fontSize=16;" parent="1" vertex="1">
          <mxGeometry x="2506" y="920" width="100" height="90" as="geometry" />
        </mxCell>
        <mxCell id="F1pNL2VdmpR060pusoOi-66" value="Un montacargas se lleva el pallet una vez fuera del resinto finaliza la linea." style="strokeWidth=2;html=1;shape=mxgraph.lean_mapping.manufacturing_process;fontSize=16;verticalAlign=middle;html=1;align=center;whiteSpace=wrap;" parent="1" vertex="1">
          <mxGeometry x="3041" y="800" width="230" height="140" as="geometry" />
        </mxCell>
        <mxCell id="F1pNL2VdmpR060pusoOi-67" value="Despacho" style="text;fontSize=16;spacingLeft=2;verticalAlign=top;html=1;align=center;spacingTop=-5;resizeWidth=1;whiteSpace=wrap;" parent="F1pNL2VdmpR060pusoOi-66" vertex="1">
          <mxGeometry width="230" height="50" as="geometry" />
        </mxCell>
        <mxCell id="F1pNL2VdmpR060pusoOi-68" value="" style="verticalLabelPosition=bottom;html=1;verticalAlign=top;strokeWidth=2;shape=mxgraph.lean_mapping.push_arrow;fontSize=16;" parent="1" vertex="1">
          <mxGeometry x="2871" y="855" width="168" height="30" as="geometry" />
        </mxCell>
        <mxCell id="F1pNL2VdmpR060pusoOi-70" value="" style="verticalLabelPosition=bottom;html=1;verticalAlign=top;strokeWidth=2;shape=mxgraph.lean_mapping.inventory_box;fontSize=16;" parent="1" vertex="1">
          <mxGeometry x="2906" y="920" width="100" height="90" as="geometry" />
        </mxCell>
        <mxCell id="F1pNL2VdmpR060pusoOi-154" value="" style="shape=table;startSize=0;container=1;collapsible=0;childLayout=tableLayout;fontSize=16;" parent="1" vertex="1">
          <mxGeometry x="260" y="1008" width="190" height="280" as="geometry" />
        </mxCell>
        <mxCell id="F1pNL2VdmpR060pusoOi-155" value="" style="shape=tableRow;horizontal=0;startSize=0;swimlaneHead=0;swimlaneBody=0;strokeColor=inherit;top=0;left=0;bottom=0;right=0;collapsible=0;dropTarget=0;fillColor=none;points=[[0,0.5],[1,0.5]];portConstraint=eastwest;fontSize=16;" parent="F1pNL2VdmpR060pusoOi-154" vertex="1">
          <mxGeometry width="190" height="40" as="geometry" />
        </mxCell>
        <mxCell id="F1pNL2VdmpR060pusoOi-156" value="&lt;font&gt;TC = 90 s/u&lt;/font&gt;" style="shape=partialRectangle;html=1;whiteSpace=wrap;connectable=0;strokeColor=inherit;overflow=hidden;fillColor=none;top=0;left=0;bottom=0;right=0;pointerEvents=1;align=left;fontSize=16;" parent="F1pNL2VdmpR060pusoOi-155" vertex="1">
          <mxGeometry width="190" height="40" as="geometry">
            <mxRectangle width="190" height="40" as="alternateBounds" />
          </mxGeometry>
        </mxCell>
        <mxCell id="F1pNL2VdmpR060pusoOi-157" value="" style="shape=tableRow;horizontal=0;startSize=0;swimlaneHead=0;swimlaneBody=0;strokeColor=inherit;top=0;left=0;bottom=0;right=0;collapsible=0;dropTarget=0;fillColor=none;points=[[0,0.5],[1,0.5]];portConstraint=eastwest;fontSize=16;" parent="F1pNL2VdmpR060pusoOi-154" vertex="1">
          <mxGeometry y="40" width="190" height="40" as="geometry" />
        </mxCell>
        <mxCell id="F1pNL2VdmpR060pusoOi-158" value="&lt;font&gt;TCP = 1&lt;/font&gt;&lt;span style=&quot;background-color: transparent; color: light-dark(rgb(0, 0, 0), rgb(255, 255, 255));&quot;&gt;&amp;nbsp;s/u&lt;/span&gt;" style="shape=partialRectangle;html=1;whiteSpace=wrap;connectable=0;strokeColor=inherit;overflow=hidden;fillColor=none;top=0;left=0;bottom=0;right=0;pointerEvents=1;align=left;fontSize=16;" parent="F1pNL2VdmpR060pusoOi-157" vertex="1">
          <mxGeometry width="190" height="40" as="geometry">
            <mxRectangle width="190" height="40" as="alternateBounds" />
          </mxGeometry>
        </mxCell>
        <mxCell id="F1pNL2VdmpR060pusoOi-159" value="" style="shape=tableRow;horizontal=0;startSize=0;swimlaneHead=0;swimlaneBody=0;strokeColor=inherit;top=0;left=0;bottom=0;right=0;collapsible=0;dropTarget=0;fillColor=none;points=[[0,0.5],[1,0.5]];portConstraint=eastwest;fontSize=16;" parent="F1pNL2VdmpR060pusoOi-154" vertex="1">
          <mxGeometry y="80" width="190" height="40" as="geometry" />
        </mxCell>
        <mxCell id="F1pNL2VdmpR060pusoOi-160" value="&lt;font&gt;DISP = 97,22%&lt;/font&gt;" style="shape=partialRectangle;html=1;whiteSpace=wrap;connectable=0;strokeColor=inherit;overflow=hidden;fillColor=none;top=0;left=0;bottom=0;right=0;pointerEvents=1;align=left;fontSize=16;" parent="F1pNL2VdmpR060pusoOi-159" vertex="1">
          <mxGeometry width="190" height="40" as="geometry">
            <mxRectangle width="190" height="40" as="alternateBounds" />
          </mxGeometry>
        </mxCell>
        <mxCell id="F1pNL2VdmpR060pusoOi-161" value="" style="shape=tableRow;horizontal=0;startSize=0;swimlaneHead=0;swimlaneBody=0;strokeColor=inherit;top=0;left=0;bottom=0;right=0;collapsible=0;dropTarget=0;fillColor=none;points=[[0,0.5],[1,0.5]];portConstraint=eastwest;fontSize=16;" parent="F1pNL2VdmpR060pusoOi-154" vertex="1">
          <mxGeometry y="120" width="190" height="40" as="geometry" />
        </mxCell>
        <mxCell id="F1pNL2VdmpR060pusoOi-162" value="&lt;font&gt;TD = 7 h&lt;/font&gt;" style="shape=partialRectangle;html=1;whiteSpace=wrap;connectable=0;strokeColor=inherit;overflow=hidden;fillColor=none;top=0;left=0;bottom=0;right=0;pointerEvents=1;align=left;fontSize=16;" parent="F1pNL2VdmpR060pusoOi-161" vertex="1">
          <mxGeometry width="190" height="40" as="geometry">
            <mxRectangle width="190" height="40" as="alternateBounds" />
          </mxGeometry>
        </mxCell>
        <mxCell id="F1pNL2VdmpR060pusoOi-163" value="" style="shape=tableRow;horizontal=0;startSize=0;swimlaneHead=0;swimlaneBody=0;strokeColor=inherit;top=0;left=0;bottom=0;right=0;collapsible=0;dropTarget=0;fillColor=none;points=[[0,0.5],[1,0.5]];portConstraint=eastwest;fontSize=16;" parent="F1pNL2VdmpR060pusoOi-154" vertex="1">
          <mxGeometry y="160" width="190" height="40" as="geometry" />
        </mxCell>
        <mxCell id="F1pNL2VdmpR060pusoOi-164" value="&lt;font&gt;TURNOS = 1&lt;/font&gt;" style="shape=partialRectangle;html=1;whiteSpace=wrap;connectable=0;strokeColor=inherit;overflow=hidden;fillColor=none;top=0;left=0;bottom=0;right=0;pointerEvents=1;align=left;fontSize=16;" parent="F1pNL2VdmpR060pusoOi-163" vertex="1">
          <mxGeometry width="190" height="40" as="geometry">
            <mxRectangle width="190" height="40" as="alternateBounds" />
          </mxGeometry>
        </mxCell>
        <mxCell id="F1pNL2VdmpR060pusoOi-165" value="" style="shape=tableRow;horizontal=0;startSize=0;swimlaneHead=0;swimlaneBody=0;strokeColor=inherit;top=0;left=0;bottom=0;right=0;collapsible=0;dropTarget=0;fillColor=none;points=[[0,0.5],[1,0.5]];portConstraint=eastwest;fontSize=16;" parent="F1pNL2VdmpR060pusoOi-154" vertex="1">
          <mxGeometry y="200" width="190" height="40" as="geometry" />
        </mxCell>
        <mxCell id="F1pNL2VdmpR060pusoOi-166" value="&lt;font&gt;OPERARIOS = 3&lt;/font&gt;" style="shape=partialRectangle;html=1;whiteSpace=wrap;connectable=0;strokeColor=inherit;overflow=hidden;fillColor=none;top=0;left=0;bottom=0;right=0;pointerEvents=1;align=left;fontSize=16;" parent="F1pNL2VdmpR060pusoOi-165" vertex="1">
          <mxGeometry width="190" height="40" as="geometry">
            <mxRectangle width="190" height="40" as="alternateBounds" />
          </mxGeometry>
        </mxCell>
        <mxCell id="F1pNL2VdmpR060pusoOi-167" value="" style="shape=tableRow;horizontal=0;startSize=0;swimlaneHead=0;swimlaneBody=0;strokeColor=inherit;top=0;left=0;bottom=0;right=0;collapsible=0;dropTarget=0;fillColor=none;points=[[0,0.5],[1,0.5]];portConstraint=eastwest;fontSize=16;" parent="F1pNL2VdmpR060pusoOi-154" vertex="1">
          <mxGeometry y="240" width="190" height="40" as="geometry" />
        </mxCell>
        <mxCell id="F1pNL2VdmpR060pusoOi-168" value="&lt;font&gt;CANT MAQUINA = 0&lt;/font&gt;" style="shape=partialRectangle;html=1;whiteSpace=wrap;connectable=0;strokeColor=inherit;overflow=hidden;fillColor=none;top=0;left=0;bottom=0;right=0;pointerEvents=1;align=left;fontSize=16;" parent="F1pNL2VdmpR060pusoOi-167" vertex="1">
          <mxGeometry width="190" height="40" as="geometry">
            <mxRectangle width="190" height="40" as="alternateBounds" />
          </mxGeometry>
        </mxCell>
        <mxCell id="F1pNL2VdmpR060pusoOi-170" value="" style="shape=table;startSize=0;container=1;collapsible=0;childLayout=tableLayout;fontSize=16;" parent="1" vertex="1">
          <mxGeometry x="660" y="1008" width="190" height="280" as="geometry" />
        </mxCell>
        <mxCell id="F1pNL2VdmpR060pusoOi-171" value="" style="shape=tableRow;horizontal=0;startSize=0;swimlaneHead=0;swimlaneBody=0;strokeColor=inherit;top=0;left=0;bottom=0;right=0;collapsible=0;dropTarget=0;fillColor=none;points=[[0,0.5],[1,0.5]];portConstraint=eastwest;fontSize=16;" parent="F1pNL2VdmpR060pusoOi-170" vertex="1">
          <mxGeometry width="190" height="40" as="geometry" />
        </mxCell>
        <mxCell id="F1pNL2VdmpR060pusoOi-172" value="&lt;font&gt;TC = 99 s/u&lt;/font&gt;" style="shape=partialRectangle;html=1;whiteSpace=wrap;connectable=0;strokeColor=inherit;overflow=hidden;fillColor=none;top=0;left=0;bottom=0;right=0;pointerEvents=1;align=left;fontSize=16;" parent="F1pNL2VdmpR060pusoOi-171" vertex="1">
          <mxGeometry width="190" height="40" as="geometry">
            <mxRectangle width="190" height="40" as="alternateBounds" />
          </mxGeometry>
        </mxCell>
        <mxCell id="F1pNL2VdmpR060pusoOi-173" value="" style="shape=tableRow;horizontal=0;startSize=0;swimlaneHead=0;swimlaneBody=0;strokeColor=inherit;top=0;left=0;bottom=0;right=0;collapsible=0;dropTarget=0;fillColor=none;points=[[0,0.5],[1,0.5]];portConstraint=eastwest;fontSize=16;" parent="F1pNL2VdmpR060pusoOi-170" vertex="1">
          <mxGeometry y="40" width="190" height="40" as="geometry" />
        </mxCell>
        <mxCell id="F1pNL2VdmpR060pusoOi-174" value="&lt;font&gt;TCP = 1 s/u&lt;/font&gt;" style="shape=partialRectangle;html=1;whiteSpace=wrap;connectable=0;strokeColor=inherit;overflow=hidden;fillColor=none;top=0;left=0;bottom=0;right=0;pointerEvents=1;align=left;fontSize=16;" parent="F1pNL2VdmpR060pusoOi-173" vertex="1">
          <mxGeometry width="190" height="40" as="geometry">
            <mxRectangle width="190" height="40" as="alternateBounds" />
          </mxGeometry>
        </mxCell>
        <mxCell id="F1pNL2VdmpR060pusoOi-175" value="" style="shape=tableRow;horizontal=0;startSize=0;swimlaneHead=0;swimlaneBody=0;strokeColor=inherit;top=0;left=0;bottom=0;right=0;collapsible=0;dropTarget=0;fillColor=none;points=[[0,0.5],[1,0.5]];portConstraint=eastwest;fontSize=16;" parent="F1pNL2VdmpR060pusoOi-170" vertex="1">
          <mxGeometry y="80" width="190" height="40" as="geometry" />
        </mxCell>
        <mxCell id="F1pNL2VdmpR060pusoOi-176" value="&lt;font&gt;DISP = 97,22%&lt;/font&gt;" style="shape=partialRectangle;html=1;whiteSpace=wrap;connectable=0;strokeColor=inherit;overflow=hidden;fillColor=none;top=0;left=0;bottom=0;right=0;pointerEvents=1;align=left;fontSize=16;" parent="F1pNL2VdmpR060pusoOi-175" vertex="1">
          <mxGeometry width="190" height="40" as="geometry">
            <mxRectangle width="190" height="40" as="alternateBounds" />
          </mxGeometry>
        </mxCell>
        <mxCell id="F1pNL2VdmpR060pusoOi-177" value="" style="shape=tableRow;horizontal=0;startSize=0;swimlaneHead=0;swimlaneBody=0;strokeColor=inherit;top=0;left=0;bottom=0;right=0;collapsible=0;dropTarget=0;fillColor=none;points=[[0,0.5],[1,0.5]];portConstraint=eastwest;fontSize=16;" parent="F1pNL2VdmpR060pusoOi-170" vertex="1">
          <mxGeometry y="120" width="190" height="40" as="geometry" />
        </mxCell>
        <mxCell id="F1pNL2VdmpR060pusoOi-178" value="&lt;span&gt;TD = 7 h&lt;/span&gt;" style="shape=partialRectangle;html=1;whiteSpace=wrap;connectable=0;strokeColor=inherit;overflow=hidden;fillColor=none;top=0;left=0;bottom=0;right=0;pointerEvents=1;align=left;fontSize=16;" parent="F1pNL2VdmpR060pusoOi-177" vertex="1">
          <mxGeometry width="190" height="40" as="geometry">
            <mxRectangle width="190" height="40" as="alternateBounds" />
          </mxGeometry>
        </mxCell>
        <mxCell id="F1pNL2VdmpR060pusoOi-179" value="" style="shape=tableRow;horizontal=0;startSize=0;swimlaneHead=0;swimlaneBody=0;strokeColor=inherit;top=0;left=0;bottom=0;right=0;collapsible=0;dropTarget=0;fillColor=none;points=[[0,0.5],[1,0.5]];portConstraint=eastwest;fontSize=16;" parent="F1pNL2VdmpR060pusoOi-170" vertex="1">
          <mxGeometry y="160" width="190" height="40" as="geometry" />
        </mxCell>
        <mxCell id="F1pNL2VdmpR060pusoOi-180" value="&lt;font&gt;TURNOS = 1&lt;/font&gt;" style="shape=partialRectangle;html=1;whiteSpace=wrap;connectable=0;strokeColor=inherit;overflow=hidden;fillColor=none;top=0;left=0;bottom=0;right=0;pointerEvents=1;align=left;fontSize=16;" parent="F1pNL2VdmpR060pusoOi-179" vertex="1">
          <mxGeometry width="190" height="40" as="geometry">
            <mxRectangle width="190" height="40" as="alternateBounds" />
          </mxGeometry>
        </mxCell>
        <mxCell id="F1pNL2VdmpR060pusoOi-181" value="" style="shape=tableRow;horizontal=0;startSize=0;swimlaneHead=0;swimlaneBody=0;strokeColor=inherit;top=0;left=0;bottom=0;right=0;collapsible=0;dropTarget=0;fillColor=none;points=[[0,0.5],[1,0.5]];portConstraint=eastwest;fontSize=16;" parent="F1pNL2VdmpR060pusoOi-170" vertex="1">
          <mxGeometry y="200" width="190" height="40" as="geometry" />
        </mxCell>
        <mxCell id="F1pNL2VdmpR060pusoOi-182" value="&lt;font&gt;OPERARIOS = 2&lt;/font&gt;" style="shape=partialRectangle;html=1;whiteSpace=wrap;connectable=0;strokeColor=inherit;overflow=hidden;fillColor=none;top=0;left=0;bottom=0;right=0;pointerEvents=1;align=left;fontSize=16;" parent="F1pNL2VdmpR060pusoOi-181" vertex="1">
          <mxGeometry width="190" height="40" as="geometry">
            <mxRectangle width="190" height="40" as="alternateBounds" />
          </mxGeometry>
        </mxCell>
        <mxCell id="F1pNL2VdmpR060pusoOi-183" value="" style="shape=tableRow;horizontal=0;startSize=0;swimlaneHead=0;swimlaneBody=0;strokeColor=inherit;top=0;left=0;bottom=0;right=0;collapsible=0;dropTarget=0;fillColor=none;points=[[0,0.5],[1,0.5]];portConstraint=eastwest;fontSize=16;" parent="F1pNL2VdmpR060pusoOi-170" vertex="1">
          <mxGeometry y="240" width="190" height="40" as="geometry" />
        </mxCell>
        <mxCell id="F1pNL2VdmpR060pusoOi-184" value="&lt;font&gt;CANT MAQUINA = 0&lt;/font&gt;" style="shape=partialRectangle;html=1;whiteSpace=wrap;connectable=0;strokeColor=inherit;overflow=hidden;fillColor=none;top=0;left=0;bottom=0;right=0;pointerEvents=1;align=left;fontSize=16;" parent="F1pNL2VdmpR060pusoOi-183" vertex="1">
          <mxGeometry width="190" height="40" as="geometry">
            <mxRectangle width="190" height="40" as="alternateBounds" />
          </mxGeometry>
        </mxCell>
        <mxCell id="F1pNL2VdmpR060pusoOi-200" value="" style="shape=table;startSize=0;container=1;collapsible=0;childLayout=tableLayout;fontSize=16;" parent="1" vertex="1">
          <mxGeometry x="1060" y="1008" width="190" height="280" as="geometry" />
        </mxCell>
        <mxCell id="F1pNL2VdmpR060pusoOi-201" value="" style="shape=tableRow;horizontal=0;startSize=0;swimlaneHead=0;swimlaneBody=0;strokeColor=inherit;top=0;left=0;bottom=0;right=0;collapsible=0;dropTarget=0;fillColor=none;points=[[0,0.5],[1,0.5]];portConstraint=eastwest;fontSize=16;" parent="F1pNL2VdmpR060pusoOi-200" vertex="1">
          <mxGeometry width="190" height="40" as="geometry" />
        </mxCell>
        <mxCell id="F1pNL2VdmpR060pusoOi-202" value="&lt;font&gt;TC = 49,5 s/u&lt;/font&gt;" style="shape=partialRectangle;html=1;whiteSpace=wrap;connectable=0;strokeColor=inherit;overflow=hidden;fillColor=none;top=0;left=0;bottom=0;right=0;pointerEvents=1;align=left;fontSize=16;" parent="F1pNL2VdmpR060pusoOi-201" vertex="1">
          <mxGeometry width="190" height="40" as="geometry">
            <mxRectangle width="190" height="40" as="alternateBounds" />
          </mxGeometry>
        </mxCell>
        <mxCell id="F1pNL2VdmpR060pusoOi-203" value="" style="shape=tableRow;horizontal=0;startSize=0;swimlaneHead=0;swimlaneBody=0;strokeColor=inherit;top=0;left=0;bottom=0;right=0;collapsible=0;dropTarget=0;fillColor=none;points=[[0,0.5],[1,0.5]];portConstraint=eastwest;fontSize=16;" parent="F1pNL2VdmpR060pusoOi-200" vertex="1">
          <mxGeometry y="40" width="190" height="40" as="geometry" />
        </mxCell>
        <mxCell id="F1pNL2VdmpR060pusoOi-204" value="&lt;font&gt;TCP = 1 s/u&lt;/font&gt;" style="shape=partialRectangle;html=1;whiteSpace=wrap;connectable=0;strokeColor=inherit;overflow=hidden;fillColor=none;top=0;left=0;bottom=0;right=0;pointerEvents=1;align=left;fontSize=16;" parent="F1pNL2VdmpR060pusoOi-203" vertex="1">
          <mxGeometry width="190" height="40" as="geometry">
            <mxRectangle width="190" height="40" as="alternateBounds" />
          </mxGeometry>
        </mxCell>
        <mxCell id="F1pNL2VdmpR060pusoOi-205" value="" style="shape=tableRow;horizontal=0;startSize=0;swimlaneHead=0;swimlaneBody=0;strokeColor=inherit;top=0;left=0;bottom=0;right=0;collapsible=0;dropTarget=0;fillColor=none;points=[[0,0.5],[1,0.5]];portConstraint=eastwest;fontSize=16;" parent="F1pNL2VdmpR060pusoOi-200" vertex="1">
          <mxGeometry y="80" width="190" height="40" as="geometry" />
        </mxCell>
        <mxCell id="F1pNL2VdmpR060pusoOi-206" value="&lt;font&gt;DISP = 87,74%&lt;/font&gt;" style="shape=partialRectangle;html=1;whiteSpace=wrap;connectable=0;strokeColor=inherit;overflow=hidden;fillColor=none;top=0;left=0;bottom=0;right=0;pointerEvents=1;align=left;fontSize=16;" parent="F1pNL2VdmpR060pusoOi-205" vertex="1">
          <mxGeometry width="190" height="40" as="geometry">
            <mxRectangle width="190" height="40" as="alternateBounds" />
          </mxGeometry>
        </mxCell>
        <mxCell id="F1pNL2VdmpR060pusoOi-207" value="" style="shape=tableRow;horizontal=0;startSize=0;swimlaneHead=0;swimlaneBody=0;strokeColor=inherit;top=0;left=0;bottom=0;right=0;collapsible=0;dropTarget=0;fillColor=none;points=[[0,0.5],[1,0.5]];portConstraint=eastwest;fontSize=16;" parent="F1pNL2VdmpR060pusoOi-200" vertex="1">
          <mxGeometry y="120" width="190" height="40" as="geometry" />
        </mxCell>
        <mxCell id="F1pNL2VdmpR060pusoOi-208" value="&lt;span&gt;TD = 7 h&lt;/span&gt;" style="shape=partialRectangle;html=1;whiteSpace=wrap;connectable=0;strokeColor=inherit;overflow=hidden;fillColor=none;top=0;left=0;bottom=0;right=0;pointerEvents=1;align=left;fontSize=16;" parent="F1pNL2VdmpR060pusoOi-207" vertex="1">
          <mxGeometry width="190" height="40" as="geometry">
            <mxRectangle width="190" height="40" as="alternateBounds" />
          </mxGeometry>
        </mxCell>
        <mxCell id="F1pNL2VdmpR060pusoOi-209" value="" style="shape=tableRow;horizontal=0;startSize=0;swimlaneHead=0;swimlaneBody=0;strokeColor=inherit;top=0;left=0;bottom=0;right=0;collapsible=0;dropTarget=0;fillColor=none;points=[[0,0.5],[1,0.5]];portConstraint=eastwest;fontSize=16;" parent="F1pNL2VdmpR060pusoOi-200" vertex="1">
          <mxGeometry y="160" width="190" height="40" as="geometry" />
        </mxCell>
        <mxCell id="F1pNL2VdmpR060pusoOi-210" value="&lt;font&gt;TURNOS = 1&lt;/font&gt;" style="shape=partialRectangle;html=1;whiteSpace=wrap;connectable=0;strokeColor=inherit;overflow=hidden;fillColor=none;top=0;left=0;bottom=0;right=0;pointerEvents=1;align=left;fontSize=16;" parent="F1pNL2VdmpR060pusoOi-209" vertex="1">
          <mxGeometry width="190" height="40" as="geometry">
            <mxRectangle width="190" height="40" as="alternateBounds" />
          </mxGeometry>
        </mxCell>
        <mxCell id="F1pNL2VdmpR060pusoOi-211" value="" style="shape=tableRow;horizontal=0;startSize=0;swimlaneHead=0;swimlaneBody=0;strokeColor=inherit;top=0;left=0;bottom=0;right=0;collapsible=0;dropTarget=0;fillColor=none;points=[[0,0.5],[1,0.5]];portConstraint=eastwest;fontSize=16;" parent="F1pNL2VdmpR060pusoOi-200" vertex="1">
          <mxGeometry y="200" width="190" height="40" as="geometry" />
        </mxCell>
        <mxCell id="F1pNL2VdmpR060pusoOi-212" value="&lt;font&gt;OPERARIOS = 3&lt;/font&gt;" style="shape=partialRectangle;html=1;whiteSpace=wrap;connectable=0;strokeColor=inherit;overflow=hidden;fillColor=none;top=0;left=0;bottom=0;right=0;pointerEvents=1;align=left;fontSize=16;" parent="F1pNL2VdmpR060pusoOi-211" vertex="1">
          <mxGeometry width="190" height="40" as="geometry">
            <mxRectangle width="190" height="40" as="alternateBounds" />
          </mxGeometry>
        </mxCell>
        <mxCell id="F1pNL2VdmpR060pusoOi-213" value="" style="shape=tableRow;horizontal=0;startSize=0;swimlaneHead=0;swimlaneBody=0;strokeColor=inherit;top=0;left=0;bottom=0;right=0;collapsible=0;dropTarget=0;fillColor=none;points=[[0,0.5],[1,0.5]];portConstraint=eastwest;fontSize=16;" parent="F1pNL2VdmpR060pusoOi-200" vertex="1">
          <mxGeometry y="240" width="190" height="40" as="geometry" />
        </mxCell>
        <mxCell id="F1pNL2VdmpR060pusoOi-214" value="&lt;font&gt;CANT MAQUINA = 1&lt;/font&gt;" style="shape=partialRectangle;html=1;whiteSpace=wrap;connectable=0;strokeColor=inherit;overflow=hidden;fillColor=none;top=0;left=0;bottom=0;right=0;pointerEvents=1;align=left;fontSize=16;" parent="F1pNL2VdmpR060pusoOi-213" vertex="1">
          <mxGeometry width="190" height="40" as="geometry">
            <mxRectangle width="190" height="40" as="alternateBounds" />
          </mxGeometry>
        </mxCell>
        <mxCell id="F1pNL2VdmpR060pusoOi-215" value="" style="shape=table;startSize=0;container=1;collapsible=0;childLayout=tableLayout;fontSize=16;" parent="1" vertex="1">
          <mxGeometry x="1861" y="1008" width="190" height="280" as="geometry" />
        </mxCell>
        <mxCell id="F1pNL2VdmpR060pusoOi-216" value="" style="shape=tableRow;horizontal=0;startSize=0;swimlaneHead=0;swimlaneBody=0;strokeColor=inherit;top=0;left=0;bottom=0;right=0;collapsible=0;dropTarget=0;fillColor=none;points=[[0,0.5],[1,0.5]];portConstraint=eastwest;fontSize=16;" parent="F1pNL2VdmpR060pusoOi-215" vertex="1">
          <mxGeometry width="190" height="40" as="geometry" />
        </mxCell>
        <mxCell id="F1pNL2VdmpR060pusoOi-217" value="&lt;font&gt;TC = 66 s/u&lt;/font&gt;" style="shape=partialRectangle;html=1;whiteSpace=wrap;connectable=0;strokeColor=inherit;overflow=hidden;fillColor=none;top=0;left=0;bottom=0;right=0;pointerEvents=1;align=left;fontSize=16;" parent="F1pNL2VdmpR060pusoOi-216" vertex="1">
          <mxGeometry width="190" height="40" as="geometry">
            <mxRectangle width="190" height="40" as="alternateBounds" />
          </mxGeometry>
        </mxCell>
        <mxCell id="F1pNL2VdmpR060pusoOi-218" value="" style="shape=tableRow;horizontal=0;startSize=0;swimlaneHead=0;swimlaneBody=0;strokeColor=inherit;top=0;left=0;bottom=0;right=0;collapsible=0;dropTarget=0;fillColor=none;points=[[0,0.5],[1,0.5]];portConstraint=eastwest;fontSize=16;" parent="F1pNL2VdmpR060pusoOi-215" vertex="1">
          <mxGeometry y="40" width="190" height="40" as="geometry" />
        </mxCell>
        <mxCell id="F1pNL2VdmpR060pusoOi-219" value="&lt;font&gt;TCP = 1 s/u&lt;/font&gt;" style="shape=partialRectangle;html=1;whiteSpace=wrap;connectable=0;strokeColor=inherit;overflow=hidden;fillColor=none;top=0;left=0;bottom=0;right=0;pointerEvents=1;align=left;fontSize=16;" parent="F1pNL2VdmpR060pusoOi-218" vertex="1">
          <mxGeometry width="190" height="40" as="geometry">
            <mxRectangle width="190" height="40" as="alternateBounds" />
          </mxGeometry>
        </mxCell>
        <mxCell id="F1pNL2VdmpR060pusoOi-220" value="" style="shape=tableRow;horizontal=0;startSize=0;swimlaneHead=0;swimlaneBody=0;strokeColor=inherit;top=0;left=0;bottom=0;right=0;collapsible=0;dropTarget=0;fillColor=none;points=[[0,0.5],[1,0.5]];portConstraint=eastwest;fontSize=16;" parent="F1pNL2VdmpR060pusoOi-215" vertex="1">
          <mxGeometry y="80" width="190" height="40" as="geometry" />
        </mxCell>
        <mxCell id="F1pNL2VdmpR060pusoOi-221" value="&lt;font&gt;DISP = 95,89%&lt;/font&gt;" style="shape=partialRectangle;html=1;whiteSpace=wrap;connectable=0;strokeColor=inherit;overflow=hidden;fillColor=none;top=0;left=0;bottom=0;right=0;pointerEvents=1;align=left;fontSize=16;" parent="F1pNL2VdmpR060pusoOi-220" vertex="1">
          <mxGeometry width="190" height="40" as="geometry">
            <mxRectangle width="190" height="40" as="alternateBounds" />
          </mxGeometry>
        </mxCell>
        <mxCell id="F1pNL2VdmpR060pusoOi-222" value="" style="shape=tableRow;horizontal=0;startSize=0;swimlaneHead=0;swimlaneBody=0;strokeColor=inherit;top=0;left=0;bottom=0;right=0;collapsible=0;dropTarget=0;fillColor=none;points=[[0,0.5],[1,0.5]];portConstraint=eastwest;fontSize=16;" parent="F1pNL2VdmpR060pusoOi-215" vertex="1">
          <mxGeometry y="120" width="190" height="40" as="geometry" />
        </mxCell>
        <mxCell id="F1pNL2VdmpR060pusoOi-223" value="&lt;span&gt;TD = 7 h&lt;/span&gt;" style="shape=partialRectangle;html=1;whiteSpace=wrap;connectable=0;strokeColor=inherit;overflow=hidden;fillColor=none;top=0;left=0;bottom=0;right=0;pointerEvents=1;align=left;fontSize=16;" parent="F1pNL2VdmpR060pusoOi-222" vertex="1">
          <mxGeometry width="190" height="40" as="geometry">
            <mxRectangle width="190" height="40" as="alternateBounds" />
          </mxGeometry>
        </mxCell>
        <mxCell id="F1pNL2VdmpR060pusoOi-224" value="" style="shape=tableRow;horizontal=0;startSize=0;swimlaneHead=0;swimlaneBody=0;strokeColor=inherit;top=0;left=0;bottom=0;right=0;collapsible=0;dropTarget=0;fillColor=none;points=[[0,0.5],[1,0.5]];portConstraint=eastwest;fontSize=16;" parent="F1pNL2VdmpR060pusoOi-215" vertex="1">
          <mxGeometry y="160" width="190" height="40" as="geometry" />
        </mxCell>
        <mxCell id="F1pNL2VdmpR060pusoOi-225" value="&lt;font&gt;TURNOS = 1&lt;/font&gt;" style="shape=partialRectangle;html=1;whiteSpace=wrap;connectable=0;strokeColor=inherit;overflow=hidden;fillColor=none;top=0;left=0;bottom=0;right=0;pointerEvents=1;align=left;fontSize=16;" parent="F1pNL2VdmpR060pusoOi-224" vertex="1">
          <mxGeometry width="190" height="40" as="geometry">
            <mxRectangle width="190" height="40" as="alternateBounds" />
          </mxGeometry>
        </mxCell>
        <mxCell id="F1pNL2VdmpR060pusoOi-226" value="" style="shape=tableRow;horizontal=0;startSize=0;swimlaneHead=0;swimlaneBody=0;strokeColor=inherit;top=0;left=0;bottom=0;right=0;collapsible=0;dropTarget=0;fillColor=none;points=[[0,0.5],[1,0.5]];portConstraint=eastwest;fontSize=16;" parent="F1pNL2VdmpR060pusoOi-215" vertex="1">
          <mxGeometry y="200" width="190" height="40" as="geometry" />
        </mxCell>
        <mxCell id="F1pNL2VdmpR060pusoOi-227" value="&lt;font&gt;OPERARIOS = 0&lt;/font&gt;" style="shape=partialRectangle;html=1;whiteSpace=wrap;connectable=0;strokeColor=inherit;overflow=hidden;fillColor=none;top=0;left=0;bottom=0;right=0;pointerEvents=1;align=left;fontSize=16;" parent="F1pNL2VdmpR060pusoOi-226" vertex="1">
          <mxGeometry width="190" height="40" as="geometry">
            <mxRectangle width="190" height="40" as="alternateBounds" />
          </mxGeometry>
        </mxCell>
        <mxCell id="F1pNL2VdmpR060pusoOi-228" value="" style="shape=tableRow;horizontal=0;startSize=0;swimlaneHead=0;swimlaneBody=0;strokeColor=inherit;top=0;left=0;bottom=0;right=0;collapsible=0;dropTarget=0;fillColor=none;points=[[0,0.5],[1,0.5]];portConstraint=eastwest;fontSize=16;" parent="F1pNL2VdmpR060pusoOi-215" vertex="1">
          <mxGeometry y="240" width="190" height="40" as="geometry" />
        </mxCell>
        <mxCell id="F1pNL2VdmpR060pusoOi-229" value="&lt;font&gt;CANT MAQUINA = 1&lt;/font&gt;" style="shape=partialRectangle;html=1;whiteSpace=wrap;connectable=0;strokeColor=inherit;overflow=hidden;fillColor=none;top=0;left=0;bottom=0;right=0;pointerEvents=1;align=left;fontSize=16;" parent="F1pNL2VdmpR060pusoOi-228" vertex="1">
          <mxGeometry width="190" height="40" as="geometry">
            <mxRectangle width="190" height="40" as="alternateBounds" />
          </mxGeometry>
        </mxCell>
        <mxCell id="F1pNL2VdmpR060pusoOi-230" value="" style="shape=table;startSize=0;container=1;collapsible=0;childLayout=tableLayout;fontSize=16;" parent="1" vertex="1">
          <mxGeometry x="2262" y="1008" width="190" height="280" as="geometry" />
        </mxCell>
        <mxCell id="F1pNL2VdmpR060pusoOi-231" value="" style="shape=tableRow;horizontal=0;startSize=0;swimlaneHead=0;swimlaneBody=0;strokeColor=inherit;top=0;left=0;bottom=0;right=0;collapsible=0;dropTarget=0;fillColor=none;points=[[0,0.5],[1,0.5]];portConstraint=eastwest;fontSize=16;" parent="F1pNL2VdmpR060pusoOi-230" vertex="1">
          <mxGeometry width="190" height="40" as="geometry" />
        </mxCell>
        <mxCell id="F1pNL2VdmpR060pusoOi-232" value="&lt;font&gt;TC = 66 s/u&lt;/font&gt;" style="shape=partialRectangle;html=1;whiteSpace=wrap;connectable=0;strokeColor=inherit;overflow=hidden;fillColor=none;top=0;left=0;bottom=0;right=0;pointerEvents=1;align=left;fontSize=16;" parent="F1pNL2VdmpR060pusoOi-231" vertex="1">
          <mxGeometry width="190" height="40" as="geometry">
            <mxRectangle width="190" height="40" as="alternateBounds" />
          </mxGeometry>
        </mxCell>
        <mxCell id="F1pNL2VdmpR060pusoOi-233" value="" style="shape=tableRow;horizontal=0;startSize=0;swimlaneHead=0;swimlaneBody=0;strokeColor=inherit;top=0;left=0;bottom=0;right=0;collapsible=0;dropTarget=0;fillColor=none;points=[[0,0.5],[1,0.5]];portConstraint=eastwest;fontSize=16;" parent="F1pNL2VdmpR060pusoOi-230" vertex="1">
          <mxGeometry y="40" width="190" height="40" as="geometry" />
        </mxCell>
        <mxCell id="F1pNL2VdmpR060pusoOi-234" value="&lt;font&gt;TCP = 1 s/u&lt;/font&gt;" style="shape=partialRectangle;html=1;whiteSpace=wrap;connectable=0;strokeColor=inherit;overflow=hidden;fillColor=none;top=0;left=0;bottom=0;right=0;pointerEvents=1;align=left;fontSize=16;" parent="F1pNL2VdmpR060pusoOi-233" vertex="1">
          <mxGeometry width="190" height="40" as="geometry">
            <mxRectangle width="190" height="40" as="alternateBounds" />
          </mxGeometry>
        </mxCell>
        <mxCell id="F1pNL2VdmpR060pusoOi-235" value="" style="shape=tableRow;horizontal=0;startSize=0;swimlaneHead=0;swimlaneBody=0;strokeColor=inherit;top=0;left=0;bottom=0;right=0;collapsible=0;dropTarget=0;fillColor=none;points=[[0,0.5],[1,0.5]];portConstraint=eastwest;fontSize=16;" parent="F1pNL2VdmpR060pusoOi-230" vertex="1">
          <mxGeometry y="80" width="190" height="40" as="geometry" />
        </mxCell>
        <mxCell id="F1pNL2VdmpR060pusoOi-236" value="&lt;font&gt;DISP = 95,89&lt;/font&gt;&lt;span style=&quot;background-color: transparent; color: light-dark(rgb(0, 0, 0), rgb(255, 255, 255));&quot;&gt;%&lt;/span&gt;" style="shape=partialRectangle;html=1;whiteSpace=wrap;connectable=0;strokeColor=inherit;overflow=hidden;fillColor=none;top=0;left=0;bottom=0;right=0;pointerEvents=1;align=left;fontSize=16;" parent="F1pNL2VdmpR060pusoOi-235" vertex="1">
          <mxGeometry width="190" height="40" as="geometry">
            <mxRectangle width="190" height="40" as="alternateBounds" />
          </mxGeometry>
        </mxCell>
        <mxCell id="F1pNL2VdmpR060pusoOi-237" value="" style="shape=tableRow;horizontal=0;startSize=0;swimlaneHead=0;swimlaneBody=0;strokeColor=inherit;top=0;left=0;bottom=0;right=0;collapsible=0;dropTarget=0;fillColor=none;points=[[0,0.5],[1,0.5]];portConstraint=eastwest;fontSize=16;" parent="F1pNL2VdmpR060pusoOi-230" vertex="1">
          <mxGeometry y="120" width="190" height="40" as="geometry" />
        </mxCell>
        <mxCell id="F1pNL2VdmpR060pusoOi-238" value="&lt;span&gt;TD = 7 h&lt;/span&gt;" style="shape=partialRectangle;html=1;whiteSpace=wrap;connectable=0;strokeColor=inherit;overflow=hidden;fillColor=none;top=0;left=0;bottom=0;right=0;pointerEvents=1;align=left;fontSize=16;" parent="F1pNL2VdmpR060pusoOi-237" vertex="1">
          <mxGeometry width="190" height="40" as="geometry">
            <mxRectangle width="190" height="40" as="alternateBounds" />
          </mxGeometry>
        </mxCell>
        <mxCell id="F1pNL2VdmpR060pusoOi-239" value="" style="shape=tableRow;horizontal=0;startSize=0;swimlaneHead=0;swimlaneBody=0;strokeColor=inherit;top=0;left=0;bottom=0;right=0;collapsible=0;dropTarget=0;fillColor=none;points=[[0,0.5],[1,0.5]];portConstraint=eastwest;fontSize=16;" parent="F1pNL2VdmpR060pusoOi-230" vertex="1">
          <mxGeometry y="160" width="190" height="40" as="geometry" />
        </mxCell>
        <mxCell id="F1pNL2VdmpR060pusoOi-240" value="&lt;font&gt;TURNOS = 1&lt;/font&gt;" style="shape=partialRectangle;html=1;whiteSpace=wrap;connectable=0;strokeColor=inherit;overflow=hidden;fillColor=none;top=0;left=0;bottom=0;right=0;pointerEvents=1;align=left;fontSize=16;" parent="F1pNL2VdmpR060pusoOi-239" vertex="1">
          <mxGeometry width="190" height="40" as="geometry">
            <mxRectangle width="190" height="40" as="alternateBounds" />
          </mxGeometry>
        </mxCell>
        <mxCell id="F1pNL2VdmpR060pusoOi-241" value="" style="shape=tableRow;horizontal=0;startSize=0;swimlaneHead=0;swimlaneBody=0;strokeColor=inherit;top=0;left=0;bottom=0;right=0;collapsible=0;dropTarget=0;fillColor=none;points=[[0,0.5],[1,0.5]];portConstraint=eastwest;fontSize=16;" parent="F1pNL2VdmpR060pusoOi-230" vertex="1">
          <mxGeometry y="200" width="190" height="40" as="geometry" />
        </mxCell>
        <mxCell id="F1pNL2VdmpR060pusoOi-242" value="&lt;font&gt;OPERARIOS = 0&lt;/font&gt;" style="shape=partialRectangle;html=1;whiteSpace=wrap;connectable=0;strokeColor=inherit;overflow=hidden;fillColor=none;top=0;left=0;bottom=0;right=0;pointerEvents=1;align=left;fontSize=16;" parent="F1pNL2VdmpR060pusoOi-241" vertex="1">
          <mxGeometry width="190" height="40" as="geometry">
            <mxRectangle width="190" height="40" as="alternateBounds" />
          </mxGeometry>
        </mxCell>
        <mxCell id="F1pNL2VdmpR060pusoOi-243" value="" style="shape=tableRow;horizontal=0;startSize=0;swimlaneHead=0;swimlaneBody=0;strokeColor=inherit;top=0;left=0;bottom=0;right=0;collapsible=0;dropTarget=0;fillColor=none;points=[[0,0.5],[1,0.5]];portConstraint=eastwest;fontSize=16;" parent="F1pNL2VdmpR060pusoOi-230" vertex="1">
          <mxGeometry y="240" width="190" height="40" as="geometry" />
        </mxCell>
        <mxCell id="F1pNL2VdmpR060pusoOi-244" value="&lt;font&gt;CANT MAQUINA = 1&lt;/font&gt;" style="shape=partialRectangle;html=1;whiteSpace=wrap;connectable=0;strokeColor=inherit;overflow=hidden;fillColor=none;top=0;left=0;bottom=0;right=0;pointerEvents=1;align=left;fontSize=16;" parent="F1pNL2VdmpR060pusoOi-243" vertex="1">
          <mxGeometry width="190" height="40" as="geometry">
            <mxRectangle width="190" height="40" as="alternateBounds" />
          </mxGeometry>
        </mxCell>
        <mxCell id="F1pNL2VdmpR060pusoOi-245" value="" style="shape=table;startSize=0;container=1;collapsible=0;childLayout=tableLayout;fontSize=16;" parent="1" vertex="1">
          <mxGeometry x="2661" y="1008" width="190" height="280" as="geometry" />
        </mxCell>
        <mxCell id="F1pNL2VdmpR060pusoOi-246" value="" style="shape=tableRow;horizontal=0;startSize=0;swimlaneHead=0;swimlaneBody=0;strokeColor=inherit;top=0;left=0;bottom=0;right=0;collapsible=0;dropTarget=0;fillColor=none;points=[[0,0.5],[1,0.5]];portConstraint=eastwest;fontSize=16;" parent="F1pNL2VdmpR060pusoOi-245" vertex="1">
          <mxGeometry width="190" height="40" as="geometry" />
        </mxCell>
        <mxCell id="F1pNL2VdmpR060pusoOi-247" value="&lt;font&gt;TC =&amp;nbsp;&lt;/font&gt;" style="shape=partialRectangle;html=1;whiteSpace=wrap;connectable=0;strokeColor=inherit;overflow=hidden;fillColor=none;top=0;left=0;bottom=0;right=0;pointerEvents=1;align=left;fontSize=16;" parent="F1pNL2VdmpR060pusoOi-246" vertex="1">
          <mxGeometry width="190" height="40" as="geometry">
            <mxRectangle width="190" height="40" as="alternateBounds" />
          </mxGeometry>
        </mxCell>
        <mxCell id="F1pNL2VdmpR060pusoOi-248" value="" style="shape=tableRow;horizontal=0;startSize=0;swimlaneHead=0;swimlaneBody=0;strokeColor=inherit;top=0;left=0;bottom=0;right=0;collapsible=0;dropTarget=0;fillColor=none;points=[[0,0.5],[1,0.5]];portConstraint=eastwest;fontSize=16;" parent="F1pNL2VdmpR060pusoOi-245" vertex="1">
          <mxGeometry y="40" width="190" height="40" as="geometry" />
        </mxCell>
        <mxCell id="F1pNL2VdmpR060pusoOi-249" value="&lt;font&gt;TCP =&lt;/font&gt;" style="shape=partialRectangle;html=1;whiteSpace=wrap;connectable=0;strokeColor=inherit;overflow=hidden;fillColor=none;top=0;left=0;bottom=0;right=0;pointerEvents=1;align=left;fontSize=16;" parent="F1pNL2VdmpR060pusoOi-248" vertex="1">
          <mxGeometry width="190" height="40" as="geometry">
            <mxRectangle width="190" height="40" as="alternateBounds" />
          </mxGeometry>
        </mxCell>
        <mxCell id="F1pNL2VdmpR060pusoOi-250" value="" style="shape=tableRow;horizontal=0;startSize=0;swimlaneHead=0;swimlaneBody=0;strokeColor=inherit;top=0;left=0;bottom=0;right=0;collapsible=0;dropTarget=0;fillColor=none;points=[[0,0.5],[1,0.5]];portConstraint=eastwest;fontSize=16;" parent="F1pNL2VdmpR060pusoOi-245" vertex="1">
          <mxGeometry y="80" width="190" height="40" as="geometry" />
        </mxCell>
        <mxCell id="F1pNL2VdmpR060pusoOi-251" value="&lt;font&gt;DISP =&lt;/font&gt;" style="shape=partialRectangle;html=1;whiteSpace=wrap;connectable=0;strokeColor=inherit;overflow=hidden;fillColor=none;top=0;left=0;bottom=0;right=0;pointerEvents=1;align=left;fontSize=16;" parent="F1pNL2VdmpR060pusoOi-250" vertex="1">
          <mxGeometry width="190" height="40" as="geometry">
            <mxRectangle width="190" height="40" as="alternateBounds" />
          </mxGeometry>
        </mxCell>
        <mxCell id="F1pNL2VdmpR060pusoOi-252" value="" style="shape=tableRow;horizontal=0;startSize=0;swimlaneHead=0;swimlaneBody=0;strokeColor=inherit;top=0;left=0;bottom=0;right=0;collapsible=0;dropTarget=0;fillColor=none;points=[[0,0.5],[1,0.5]];portConstraint=eastwest;fontSize=16;" parent="F1pNL2VdmpR060pusoOi-245" vertex="1">
          <mxGeometry y="120" width="190" height="40" as="geometry" />
        </mxCell>
        <mxCell id="F1pNL2VdmpR060pusoOi-253" value="&lt;font&gt;TD =&lt;/font&gt;" style="shape=partialRectangle;html=1;whiteSpace=wrap;connectable=0;strokeColor=inherit;overflow=hidden;fillColor=none;top=0;left=0;bottom=0;right=0;pointerEvents=1;align=left;fontSize=16;" parent="F1pNL2VdmpR060pusoOi-252" vertex="1">
          <mxGeometry width="190" height="40" as="geometry">
            <mxRectangle width="190" height="40" as="alternateBounds" />
          </mxGeometry>
        </mxCell>
        <mxCell id="F1pNL2VdmpR060pusoOi-254" value="" style="shape=tableRow;horizontal=0;startSize=0;swimlaneHead=0;swimlaneBody=0;strokeColor=inherit;top=0;left=0;bottom=0;right=0;collapsible=0;dropTarget=0;fillColor=none;points=[[0,0.5],[1,0.5]];portConstraint=eastwest;fontSize=16;" parent="F1pNL2VdmpR060pusoOi-245" vertex="1">
          <mxGeometry y="160" width="190" height="40" as="geometry" />
        </mxCell>
        <mxCell id="F1pNL2VdmpR060pusoOi-255" value="&lt;font&gt;TURNOS =&amp;nbsp;&lt;/font&gt;" style="shape=partialRectangle;html=1;whiteSpace=wrap;connectable=0;strokeColor=inherit;overflow=hidden;fillColor=none;top=0;left=0;bottom=0;right=0;pointerEvents=1;align=left;fontSize=16;" parent="F1pNL2VdmpR060pusoOi-254" vertex="1">
          <mxGeometry width="190" height="40" as="geometry">
            <mxRectangle width="190" height="40" as="alternateBounds" />
          </mxGeometry>
        </mxCell>
        <mxCell id="F1pNL2VdmpR060pusoOi-256" value="" style="shape=tableRow;horizontal=0;startSize=0;swimlaneHead=0;swimlaneBody=0;strokeColor=inherit;top=0;left=0;bottom=0;right=0;collapsible=0;dropTarget=0;fillColor=none;points=[[0,0.5],[1,0.5]];portConstraint=eastwest;fontSize=16;" parent="F1pNL2VdmpR060pusoOi-245" vertex="1">
          <mxGeometry y="200" width="190" height="40" as="geometry" />
        </mxCell>
        <mxCell id="F1pNL2VdmpR060pusoOi-257" value="&lt;font&gt;OPERARIOS =&amp;nbsp;&lt;/font&gt;" style="shape=partialRectangle;html=1;whiteSpace=wrap;connectable=0;strokeColor=inherit;overflow=hidden;fillColor=none;top=0;left=0;bottom=0;right=0;pointerEvents=1;align=left;fontSize=16;" parent="F1pNL2VdmpR060pusoOi-256" vertex="1">
          <mxGeometry width="190" height="40" as="geometry">
            <mxRectangle width="190" height="40" as="alternateBounds" />
          </mxGeometry>
        </mxCell>
        <mxCell id="F1pNL2VdmpR060pusoOi-258" value="" style="shape=tableRow;horizontal=0;startSize=0;swimlaneHead=0;swimlaneBody=0;strokeColor=inherit;top=0;left=0;bottom=0;right=0;collapsible=0;dropTarget=0;fillColor=none;points=[[0,0.5],[1,0.5]];portConstraint=eastwest;fontSize=16;" parent="F1pNL2VdmpR060pusoOi-245" vertex="1">
          <mxGeometry y="240" width="190" height="40" as="geometry" />
        </mxCell>
        <mxCell id="F1pNL2VdmpR060pusoOi-259" value="&lt;font&gt;CANT MAQUINA: 3&lt;/font&gt;" style="shape=partialRectangle;html=1;whiteSpace=wrap;connectable=0;strokeColor=inherit;overflow=hidden;fillColor=none;top=0;left=0;bottom=0;right=0;pointerEvents=1;align=left;fontSize=16;" parent="F1pNL2VdmpR060pusoOi-258" vertex="1">
          <mxGeometry width="190" height="40" as="geometry">
            <mxRectangle width="190" height="40" as="alternateBounds" />
          </mxGeometry>
        </mxCell>
        <mxCell id="F1pNL2VdmpR060pusoOi-260" value="" style="shape=table;startSize=0;container=1;collapsible=0;childLayout=tableLayout;fontSize=16;" parent="1" vertex="1">
          <mxGeometry x="2661" y="1008" width="190" height="280" as="geometry" />
        </mxCell>
        <mxCell id="F1pNL2VdmpR060pusoOi-261" value="" style="shape=tableRow;horizontal=0;startSize=0;swimlaneHead=0;swimlaneBody=0;strokeColor=inherit;top=0;left=0;bottom=0;right=0;collapsible=0;dropTarget=0;fillColor=none;points=[[0,0.5],[1,0.5]];portConstraint=eastwest;fontSize=16;" parent="F1pNL2VdmpR060pusoOi-260" vertex="1">
          <mxGeometry width="190" height="40" as="geometry" />
        </mxCell>
        <mxCell id="F1pNL2VdmpR060pusoOi-262" value="&lt;font&gt;TC = 5,03 s/u&lt;/font&gt;" style="shape=partialRectangle;html=1;whiteSpace=wrap;connectable=0;strokeColor=inherit;overflow=hidden;fillColor=none;top=0;left=0;bottom=0;right=0;pointerEvents=1;align=left;fontSize=16;" parent="F1pNL2VdmpR060pusoOi-261" vertex="1">
          <mxGeometry width="190" height="40" as="geometry">
            <mxRectangle width="190" height="40" as="alternateBounds" />
          </mxGeometry>
        </mxCell>
        <mxCell id="F1pNL2VdmpR060pusoOi-263" value="" style="shape=tableRow;horizontal=0;startSize=0;swimlaneHead=0;swimlaneBody=0;strokeColor=inherit;top=0;left=0;bottom=0;right=0;collapsible=0;dropTarget=0;fillColor=none;points=[[0,0.5],[1,0.5]];portConstraint=eastwest;fontSize=16;" parent="F1pNL2VdmpR060pusoOi-260" vertex="1">
          <mxGeometry y="40" width="190" height="40" as="geometry" />
        </mxCell>
        <mxCell id="F1pNL2VdmpR060pusoOi-264" value="&lt;font&gt;TCP = 5,03 s/u&lt;/font&gt;" style="shape=partialRectangle;html=1;whiteSpace=wrap;connectable=0;strokeColor=inherit;overflow=hidden;fillColor=none;top=0;left=0;bottom=0;right=0;pointerEvents=1;align=left;fontSize=16;" parent="F1pNL2VdmpR060pusoOi-263" vertex="1">
          <mxGeometry width="190" height="40" as="geometry">
            <mxRectangle width="190" height="40" as="alternateBounds" />
          </mxGeometry>
        </mxCell>
        <mxCell id="F1pNL2VdmpR060pusoOi-265" value="" style="shape=tableRow;horizontal=0;startSize=0;swimlaneHead=0;swimlaneBody=0;strokeColor=inherit;top=0;left=0;bottom=0;right=0;collapsible=0;dropTarget=0;fillColor=none;points=[[0,0.5],[1,0.5]];portConstraint=eastwest;fontSize=16;" parent="F1pNL2VdmpR060pusoOi-260" vertex="1">
          <mxGeometry y="80" width="190" height="40" as="geometry" />
        </mxCell>
        <mxCell id="F1pNL2VdmpR060pusoOi-266" value="&lt;font&gt;DISP = 94,59%&lt;/font&gt;" style="shape=partialRectangle;html=1;whiteSpace=wrap;connectable=0;strokeColor=inherit;overflow=hidden;fillColor=none;top=0;left=0;bottom=0;right=0;pointerEvents=1;align=left;fontSize=16;" parent="F1pNL2VdmpR060pusoOi-265" vertex="1">
          <mxGeometry width="190" height="40" as="geometry">
            <mxRectangle width="190" height="40" as="alternateBounds" />
          </mxGeometry>
        </mxCell>
        <mxCell id="F1pNL2VdmpR060pusoOi-267" value="" style="shape=tableRow;horizontal=0;startSize=0;swimlaneHead=0;swimlaneBody=0;strokeColor=inherit;top=0;left=0;bottom=0;right=0;collapsible=0;dropTarget=0;fillColor=none;points=[[0,0.5],[1,0.5]];portConstraint=eastwest;fontSize=16;" parent="F1pNL2VdmpR060pusoOi-260" vertex="1">
          <mxGeometry y="120" width="190" height="40" as="geometry" />
        </mxCell>
        <mxCell id="F1pNL2VdmpR060pusoOi-268" value="&lt;span&gt;TD = 7 h&lt;/span&gt;" style="shape=partialRectangle;html=1;whiteSpace=wrap;connectable=0;strokeColor=inherit;overflow=hidden;fillColor=none;top=0;left=0;bottom=0;right=0;pointerEvents=1;align=left;fontSize=16;" parent="F1pNL2VdmpR060pusoOi-267" vertex="1">
          <mxGeometry width="190" height="40" as="geometry">
            <mxRectangle width="190" height="40" as="alternateBounds" />
          </mxGeometry>
        </mxCell>
        <mxCell id="F1pNL2VdmpR060pusoOi-269" value="" style="shape=tableRow;horizontal=0;startSize=0;swimlaneHead=0;swimlaneBody=0;strokeColor=inherit;top=0;left=0;bottom=0;right=0;collapsible=0;dropTarget=0;fillColor=none;points=[[0,0.5],[1,0.5]];portConstraint=eastwest;fontSize=16;" parent="F1pNL2VdmpR060pusoOi-260" vertex="1">
          <mxGeometry y="160" width="190" height="40" as="geometry" />
        </mxCell>
        <mxCell id="F1pNL2VdmpR060pusoOi-270" value="&lt;font&gt;TURNOS = 1&lt;/font&gt;" style="shape=partialRectangle;html=1;whiteSpace=wrap;connectable=0;strokeColor=inherit;overflow=hidden;fillColor=none;top=0;left=0;bottom=0;right=0;pointerEvents=1;align=left;fontSize=16;" parent="F1pNL2VdmpR060pusoOi-269" vertex="1">
          <mxGeometry width="190" height="40" as="geometry">
            <mxRectangle width="190" height="40" as="alternateBounds" />
          </mxGeometry>
        </mxCell>
        <mxCell id="F1pNL2VdmpR060pusoOi-271" value="" style="shape=tableRow;horizontal=0;startSize=0;swimlaneHead=0;swimlaneBody=0;strokeColor=inherit;top=0;left=0;bottom=0;right=0;collapsible=0;dropTarget=0;fillColor=none;points=[[0,0.5],[1,0.5]];portConstraint=eastwest;fontSize=16;" parent="F1pNL2VdmpR060pusoOi-260" vertex="1">
          <mxGeometry y="200" width="190" height="40" as="geometry" />
        </mxCell>
        <mxCell id="F1pNL2VdmpR060pusoOi-272" value="&lt;font&gt;OPERARIOS = 0&lt;/font&gt;" style="shape=partialRectangle;html=1;whiteSpace=wrap;connectable=0;strokeColor=inherit;overflow=hidden;fillColor=none;top=0;left=0;bottom=0;right=0;pointerEvents=1;align=left;fontSize=16;" parent="F1pNL2VdmpR060pusoOi-271" vertex="1">
          <mxGeometry width="190" height="40" as="geometry">
            <mxRectangle width="190" height="40" as="alternateBounds" />
          </mxGeometry>
        </mxCell>
        <mxCell id="F1pNL2VdmpR060pusoOi-273" value="" style="shape=tableRow;horizontal=0;startSize=0;swimlaneHead=0;swimlaneBody=0;strokeColor=inherit;top=0;left=0;bottom=0;right=0;collapsible=0;dropTarget=0;fillColor=none;points=[[0,0.5],[1,0.5]];portConstraint=eastwest;fontSize=16;" parent="F1pNL2VdmpR060pusoOi-260" vertex="1">
          <mxGeometry y="240" width="190" height="40" as="geometry" />
        </mxCell>
        <mxCell id="F1pNL2VdmpR060pusoOi-274" value="&lt;font&gt;CANT MAQUINA = 1&lt;/font&gt;" style="shape=partialRectangle;html=1;whiteSpace=wrap;connectable=0;strokeColor=inherit;overflow=hidden;fillColor=none;top=0;left=0;bottom=0;right=0;pointerEvents=1;align=left;fontSize=16;" parent="F1pNL2VdmpR060pusoOi-273" vertex="1">
          <mxGeometry width="190" height="40" as="geometry">
            <mxRectangle width="190" height="40" as="alternateBounds" />
          </mxGeometry>
        </mxCell>
        <mxCell id="F1pNL2VdmpR060pusoOi-275" value="" style="shape=table;startSize=0;container=1;collapsible=0;childLayout=tableLayout;fontSize=16;" parent="1" vertex="1">
          <mxGeometry x="3061" y="1010" width="190" height="280" as="geometry" />
        </mxCell>
        <mxCell id="F1pNL2VdmpR060pusoOi-276" value="" style="shape=tableRow;horizontal=0;startSize=0;swimlaneHead=0;swimlaneBody=0;strokeColor=inherit;top=0;left=0;bottom=0;right=0;collapsible=0;dropTarget=0;fillColor=none;points=[[0,0.5],[1,0.5]];portConstraint=eastwest;fontSize=16;" parent="F1pNL2VdmpR060pusoOi-275" vertex="1">
          <mxGeometry width="190" height="40" as="geometry" />
        </mxCell>
        <mxCell id="F1pNL2VdmpR060pusoOi-277" value="&lt;font&gt;TC = 30 s/u&lt;/font&gt;" style="shape=partialRectangle;html=1;whiteSpace=wrap;connectable=0;strokeColor=inherit;overflow=hidden;fillColor=none;top=0;left=0;bottom=0;right=0;pointerEvents=1;align=left;fontSize=16;" parent="F1pNL2VdmpR060pusoOi-276" vertex="1">
          <mxGeometry width="190" height="40" as="geometry">
            <mxRectangle width="190" height="40" as="alternateBounds" />
          </mxGeometry>
        </mxCell>
        <mxCell id="F1pNL2VdmpR060pusoOi-278" value="" style="shape=tableRow;horizontal=0;startSize=0;swimlaneHead=0;swimlaneBody=0;strokeColor=inherit;top=0;left=0;bottom=0;right=0;collapsible=0;dropTarget=0;fillColor=none;points=[[0,0.5],[1,0.5]];portConstraint=eastwest;fontSize=16;" parent="F1pNL2VdmpR060pusoOi-275" vertex="1">
          <mxGeometry y="40" width="190" height="40" as="geometry" />
        </mxCell>
        <mxCell id="F1pNL2VdmpR060pusoOi-279" value="&lt;font&gt;TCP = 10 s/u&lt;/font&gt;" style="shape=partialRectangle;html=1;whiteSpace=wrap;connectable=0;strokeColor=inherit;overflow=hidden;fillColor=none;top=0;left=0;bottom=0;right=0;pointerEvents=1;align=left;fontSize=16;" parent="F1pNL2VdmpR060pusoOi-278" vertex="1">
          <mxGeometry width="190" height="40" as="geometry">
            <mxRectangle width="190" height="40" as="alternateBounds" />
          </mxGeometry>
        </mxCell>
        <mxCell id="F1pNL2VdmpR060pusoOi-280" value="" style="shape=tableRow;horizontal=0;startSize=0;swimlaneHead=0;swimlaneBody=0;strokeColor=inherit;top=0;left=0;bottom=0;right=0;collapsible=0;dropTarget=0;fillColor=none;points=[[0,0.5],[1,0.5]];portConstraint=eastwest;fontSize=16;" parent="F1pNL2VdmpR060pusoOi-275" vertex="1">
          <mxGeometry y="80" width="190" height="40" as="geometry" />
        </mxCell>
        <mxCell id="F1pNL2VdmpR060pusoOi-281" value="&lt;font&gt;DISP = 97,22%&lt;/font&gt;" style="shape=partialRectangle;html=1;whiteSpace=wrap;connectable=0;strokeColor=inherit;overflow=hidden;fillColor=none;top=0;left=0;bottom=0;right=0;pointerEvents=1;align=left;fontSize=16;" parent="F1pNL2VdmpR060pusoOi-280" vertex="1">
          <mxGeometry width="190" height="40" as="geometry">
            <mxRectangle width="190" height="40" as="alternateBounds" />
          </mxGeometry>
        </mxCell>
        <mxCell id="F1pNL2VdmpR060pusoOi-282" value="" style="shape=tableRow;horizontal=0;startSize=0;swimlaneHead=0;swimlaneBody=0;strokeColor=inherit;top=0;left=0;bottom=0;right=0;collapsible=0;dropTarget=0;fillColor=none;points=[[0,0.5],[1,0.5]];portConstraint=eastwest;fontSize=16;" parent="F1pNL2VdmpR060pusoOi-275" vertex="1">
          <mxGeometry y="120" width="190" height="40" as="geometry" />
        </mxCell>
        <mxCell id="F1pNL2VdmpR060pusoOi-283" value="&lt;font&gt;TD = 7 h&lt;/font&gt;" style="shape=partialRectangle;html=1;whiteSpace=wrap;connectable=0;strokeColor=inherit;overflow=hidden;fillColor=none;top=0;left=0;bottom=0;right=0;pointerEvents=1;align=left;fontSize=16;" parent="F1pNL2VdmpR060pusoOi-282" vertex="1">
          <mxGeometry width="190" height="40" as="geometry">
            <mxRectangle width="190" height="40" as="alternateBounds" />
          </mxGeometry>
        </mxCell>
        <mxCell id="F1pNL2VdmpR060pusoOi-284" value="" style="shape=tableRow;horizontal=0;startSize=0;swimlaneHead=0;swimlaneBody=0;strokeColor=inherit;top=0;left=0;bottom=0;right=0;collapsible=0;dropTarget=0;fillColor=none;points=[[0,0.5],[1,0.5]];portConstraint=eastwest;fontSize=16;" parent="F1pNL2VdmpR060pusoOi-275" vertex="1">
          <mxGeometry y="160" width="190" height="40" as="geometry" />
        </mxCell>
        <mxCell id="F1pNL2VdmpR060pusoOi-285" value="&lt;font&gt;TURNOS = 1&lt;/font&gt;" style="shape=partialRectangle;html=1;whiteSpace=wrap;connectable=0;strokeColor=inherit;overflow=hidden;fillColor=none;top=0;left=0;bottom=0;right=0;pointerEvents=1;align=left;fontSize=16;" parent="F1pNL2VdmpR060pusoOi-284" vertex="1">
          <mxGeometry width="190" height="40" as="geometry">
            <mxRectangle width="190" height="40" as="alternateBounds" />
          </mxGeometry>
        </mxCell>
        <mxCell id="F1pNL2VdmpR060pusoOi-286" value="" style="shape=tableRow;horizontal=0;startSize=0;swimlaneHead=0;swimlaneBody=0;strokeColor=inherit;top=0;left=0;bottom=0;right=0;collapsible=0;dropTarget=0;fillColor=none;points=[[0,0.5],[1,0.5]];portConstraint=eastwest;fontSize=16;" parent="F1pNL2VdmpR060pusoOi-275" vertex="1">
          <mxGeometry y="200" width="190" height="40" as="geometry" />
        </mxCell>
        <mxCell id="F1pNL2VdmpR060pusoOi-287" value="&lt;font&gt;OPERARIOS = 1&lt;/font&gt;" style="shape=partialRectangle;html=1;whiteSpace=wrap;connectable=0;strokeColor=inherit;overflow=hidden;fillColor=none;top=0;left=0;bottom=0;right=0;pointerEvents=1;align=left;fontSize=16;" parent="F1pNL2VdmpR060pusoOi-286" vertex="1">
          <mxGeometry width="190" height="40" as="geometry">
            <mxRectangle width="190" height="40" as="alternateBounds" />
          </mxGeometry>
        </mxCell>
        <mxCell id="F1pNL2VdmpR060pusoOi-288" value="" style="shape=tableRow;horizontal=0;startSize=0;swimlaneHead=0;swimlaneBody=0;strokeColor=inherit;top=0;left=0;bottom=0;right=0;collapsible=0;dropTarget=0;fillColor=none;points=[[0,0.5],[1,0.5]];portConstraint=eastwest;fontSize=16;" parent="F1pNL2VdmpR060pusoOi-275" vertex="1">
          <mxGeometry y="240" width="190" height="40" as="geometry" />
        </mxCell>
        <mxCell id="F1pNL2VdmpR060pusoOi-289" value="&lt;font&gt;CANT MAQUINA = 1&lt;/font&gt;" style="shape=partialRectangle;html=1;whiteSpace=wrap;connectable=0;strokeColor=inherit;overflow=hidden;fillColor=none;top=0;left=0;bottom=0;right=0;pointerEvents=1;align=left;fontSize=16;" parent="F1pNL2VdmpR060pusoOi-288" vertex="1">
          <mxGeometry width="190" height="40" as="geometry">
            <mxRectangle width="190" height="40" as="alternateBounds" />
          </mxGeometry>
        </mxCell>
        <mxCell id="F1pNL2VdmpR060pusoOi-290" value="&lt;font&gt;TC = Tiempo de ciclo, TCP= Tiempo de Cambio de Producto, DISP = Disponibilidad, TD = Tiempo de trabajo disponible al dia&lt;/font&gt;" style="text;html=1;align=left;verticalAlign=middle;whiteSpace=wrap;rounded=0;fontSize=16;" parent="1" vertex="1">
          <mxGeometry x="-166" y="1574" width="1100" height="27" as="geometry" />
        </mxCell>
        <mxCell id="F1pNL2VdmpR060pusoOi-292" value="" style="verticalLabelPosition=bottom;html=1;verticalAlign=top;strokeWidth=2;shape=mxgraph.lean_mapping.timeline2;dx1=0;dy1=0;dx2=0;dy2=0;dx3=190.915;dy3=0.564;dx4=403.613;dy4=0;dx5=594.089;dy5=0.649;dy6=0.811;fontSize=16;" parent="1" vertex="1">
          <mxGeometry x="-144" y="1380" width="803" height="90" as="geometry" />
        </mxCell>
        <mxCell id="F1pNL2VdmpR060pusoOi-293" value="" style="verticalLabelPosition=bottom;html=1;verticalAlign=top;strokeWidth=2;shape=mxgraph.lean_mapping.timeline2;dx1=0;dy1=1;dx2=30;dy2=0;dx3=220.359;dy3=0.557;dx4=428.613;dy4=0;dx5=620.359;dy5=0.734;dy6=0;fontSize=16;" parent="1" vertex="1">
          <mxGeometry x="631" y="1380" width="830" height="90" as="geometry" />
        </mxCell>
        <mxCell id="F1pNL2VdmpR060pusoOi-294" value="" style="verticalLabelPosition=bottom;html=1;verticalAlign=top;strokeWidth=2;shape=mxgraph.lean_mapping.timeline2;dx1=0;dy1=1;dx2=30;dy2=0;dx3=220.359;dy3=0.769;dx4=430.932;dy4=0;dx5=622.264;dy5=0.677;dy6=0;fontSize=16;" parent="1" vertex="1">
          <mxGeometry x="1431" y="1380" width="830" height="90" as="geometry" />
        </mxCell>
        <mxCell id="F1pNL2VdmpR060pusoOi-295" value="" style="verticalLabelPosition=bottom;html=1;verticalAlign=top;strokeWidth=2;shape=mxgraph.lean_mapping.timeline2;dx1=0;dy1=1;dx2=30;dy2=0;dx3=222.264;dy3=0.515;dx4=430.932;dy4=0;dx5=619.559;dy5=0.518;dy6=1;fontSize=16;" parent="1" vertex="1">
          <mxGeometry x="2231" y="1380" width="660" height="90" as="geometry" />
        </mxCell>
        <mxCell id="F1pNL2VdmpR060pusoOi-298" value="" style="shape=flexArrow;html=1;rounded=0;exitX=0.5;exitY=0;exitDx=0;exitDy=0;entryX=0.5;entryY=1;entryDx=0;entryDy=0;fontSize=16;" parent="1" source="F1pNL2VdmpR060pusoOi-67" target="F1pNL2VdmpR060pusoOi-2" edge="1">
          <mxGeometry width="100" height="100" relative="1" as="geometry">
            <mxPoint x="2940" y="650" as="sourcePoint" />
            <mxPoint x="3040" y="550" as="targetPoint" />
          </mxGeometry>
        </mxCell>
        <mxCell id="F1pNL2VdmpR060pusoOi-314" value="&lt;div&gt;&lt;span style=&quot;background-color: transparent; color: light-dark(rgb(0, 0, 0), rgb(255, 255, 255));&quot;&gt;40% motos, 35% barcos y 25% casas&amp;nbsp;&lt;/span&gt;&lt;br&gt;&lt;/div&gt;" style="text;html=1;align=left;verticalAlign=middle;whiteSpace=wrap;rounded=0;fontSize=16;" parent="1" vertex="1">
          <mxGeometry x="-168" y="1536" width="1090" height="30" as="geometry" />
        </mxCell>
        <mxCell id="F1pNL2VdmpR060pusoOi-317" value="&lt;font&gt;11,10 h&lt;/font&gt;" style="text;html=1;align=center;verticalAlign=middle;whiteSpace=wrap;rounded=0;fontSize=16;" parent="1" vertex="1">
          <mxGeometry x="-123" y="1340" width="150" height="30" as="geometry" />
        </mxCell>
        <mxCell id="F1pNL2VdmpR060pusoOi-318" value="&lt;font&gt;11,88 h&lt;/font&gt;" style="text;html=1;align=center;verticalAlign=middle;whiteSpace=wrap;rounded=0;fontSize=16;" parent="1" vertex="1">
          <mxGeometry x="284" y="1340" width="150" height="30" as="geometry" />
        </mxCell>
        <mxCell id="F1pNL2VdmpR060pusoOi-319" value="&lt;font&gt;13,06 h&lt;/font&gt;" style="text;html=1;align=center;verticalAlign=middle;whiteSpace=wrap;rounded=0;fontSize=16;" parent="1" vertex="1">
          <mxGeometry x="664" y="1340" width="180" height="30" as="geometry" />
        </mxCell>
        <mxCell id="F1pNL2VdmpR060pusoOi-320" value="&lt;font&gt;6,59 h&lt;/font&gt;" style="text;html=1;align=center;verticalAlign=middle;whiteSpace=wrap;rounded=0;fontSize=16;" parent="1" vertex="1">
          <mxGeometry x="1062" y="1340" width="180" height="30" as="geometry" />
        </mxCell>
        <mxCell id="F1pNL2VdmpR060pusoOi-321" value="&lt;font&gt;21,67 h&lt;/font&gt;" style="text;html=1;align=center;verticalAlign=middle;whiteSpace=wrap;rounded=0;fontSize=16;" parent="1" vertex="1">
          <mxGeometry x="1467" y="1340" width="180" height="30" as="geometry" />
        </mxCell>
        <mxCell id="F1pNL2VdmpR060pusoOi-322" value="&lt;font&gt;8,75 h&lt;/font&gt;" style="text;html=1;align=center;verticalAlign=middle;whiteSpace=wrap;rounded=0;fontSize=16;" parent="1" vertex="1">
          <mxGeometry x="1866" y="1340" width="180" height="30" as="geometry" />
        </mxCell>
        <mxCell id="F1pNL2VdmpR060pusoOi-323" value="&lt;font&gt;8,75 h&lt;/font&gt;" style="text;html=1;align=center;verticalAlign=middle;whiteSpace=wrap;rounded=0;fontSize=16;" parent="1" vertex="1">
          <mxGeometry x="2266" y="1340" width="180" height="30" as="geometry" />
        </mxCell>
        <mxCell id="I_ms-DkJsqw6G00hhyOn-1" value="Una inyectora multimaterial adaptada con un robot, para que este ultimo haga el set-up de los moldes." style="strokeWidth=2;html=1;shape=mxgraph.lean_mapping.manufacturing_process;fontSize=16;verticalAlign=middle;html=1;align=center;whiteSpace=wrap;" parent="1" vertex="1">
          <mxGeometry x="-167" y="800" width="246" height="140" as="geometry" />
        </mxCell>
        <mxCell id="I_ms-DkJsqw6G00hhyOn-2" value="Inyección multiple automatizada" style="text;fontSize=16;spacingLeft=2;verticalAlign=top;html=1;align=center;spacingTop=-5;resizeWidth=1;whiteSpace=wrap;" parent="I_ms-DkJsqw6G00hhyOn-1" vertex="1">
          <mxGeometry x="2.139130434782609" width="243.8608695652174" height="23" as="geometry" />
        </mxCell>
        <mxCell id="I_ms-DkJsqw6G00hhyOn-3" value="" style="verticalLabelPosition=bottom;html=1;verticalAlign=top;strokeWidth=2;shape=mxgraph.lean_mapping.push_arrow;fontSize=16;" parent="1" vertex="1">
          <mxGeometry x="79" y="855" width="159" height="30" as="geometry" />
        </mxCell>
        <mxCell id="I_ms-DkJsqw6G00hhyOn-5" value="" style="verticalLabelPosition=bottom;html=1;verticalAlign=top;strokeWidth=2;shape=mxgraph.lean_mapping.inventory_box;fontSize=16;" parent="1" vertex="1">
          <mxGeometry x="105" y="920" width="100" height="90" as="geometry" />
        </mxCell>
        <mxCell id="I_ms-DkJsqw6G00hhyOn-6" value="" style="shape=table;startSize=0;container=1;collapsible=0;childLayout=tableLayout;fontSize=16;" parent="1" vertex="1">
          <mxGeometry x="-140" y="1008" width="190" height="280" as="geometry" />
        </mxCell>
        <mxCell id="I_ms-DkJsqw6G00hhyOn-7" value="" style="shape=tableRow;horizontal=0;startSize=0;swimlaneHead=0;swimlaneBody=0;strokeColor=inherit;top=0;left=0;bottom=0;right=0;collapsible=0;dropTarget=0;fillColor=none;points=[[0,0.5],[1,0.5]];portConstraint=eastwest;fontSize=16;" parent="I_ms-DkJsqw6G00hhyOn-6" vertex="1">
          <mxGeometry width="190" height="40" as="geometry" />
        </mxCell>
        <mxCell id="I_ms-DkJsqw6G00hhyOn-8" value="&lt;font&gt;TC = 60 s/u&lt;/font&gt;" style="shape=partialRectangle;html=1;whiteSpace=wrap;connectable=0;strokeColor=inherit;overflow=hidden;fillColor=none;top=0;left=0;bottom=0;right=0;pointerEvents=1;align=left;fontSize=16;" parent="I_ms-DkJsqw6G00hhyOn-7" vertex="1">
          <mxGeometry width="190" height="40" as="geometry">
            <mxRectangle width="190" height="40" as="alternateBounds" />
          </mxGeometry>
        </mxCell>
        <mxCell id="I_ms-DkJsqw6G00hhyOn-9" value="" style="shape=tableRow;horizontal=0;startSize=0;swimlaneHead=0;swimlaneBody=0;strokeColor=inherit;top=0;left=0;bottom=0;right=0;collapsible=0;dropTarget=0;fillColor=none;points=[[0,0.5],[1,0.5]];portConstraint=eastwest;fontSize=16;" parent="I_ms-DkJsqw6G00hhyOn-6" vertex="1">
          <mxGeometry y="40" width="190" height="40" as="geometry" />
        </mxCell>
        <mxCell id="I_ms-DkJsqw6G00hhyOn-10" value="&lt;font&gt;TCP = 25 s/u&lt;/font&gt;" style="shape=partialRectangle;html=1;whiteSpace=wrap;connectable=0;strokeColor=inherit;overflow=hidden;fillColor=none;top=0;left=0;bottom=0;right=0;pointerEvents=1;align=left;fontSize=16;" parent="I_ms-DkJsqw6G00hhyOn-9" vertex="1">
          <mxGeometry width="190" height="40" as="geometry">
            <mxRectangle width="190" height="40" as="alternateBounds" />
          </mxGeometry>
        </mxCell>
        <mxCell id="I_ms-DkJsqw6G00hhyOn-11" value="" style="shape=tableRow;horizontal=0;startSize=0;swimlaneHead=0;swimlaneBody=0;strokeColor=inherit;top=0;left=0;bottom=0;right=0;collapsible=0;dropTarget=0;fillColor=none;points=[[0,0.5],[1,0.5]];portConstraint=eastwest;fontSize=16;" parent="I_ms-DkJsqw6G00hhyOn-6" vertex="1">
          <mxGeometry y="80" width="190" height="40" as="geometry" />
        </mxCell>
        <mxCell id="I_ms-DkJsqw6G00hhyOn-12" value="&lt;font&gt;DISP = 92,11%&lt;/font&gt;" style="shape=partialRectangle;html=1;whiteSpace=wrap;connectable=0;strokeColor=inherit;overflow=hidden;fillColor=none;top=0;left=0;bottom=0;right=0;pointerEvents=1;align=left;fontSize=16;" parent="I_ms-DkJsqw6G00hhyOn-11" vertex="1">
          <mxGeometry width="190" height="40" as="geometry">
            <mxRectangle width="190" height="40" as="alternateBounds" />
          </mxGeometry>
        </mxCell>
        <mxCell id="I_ms-DkJsqw6G00hhyOn-13" value="" style="shape=tableRow;horizontal=0;startSize=0;swimlaneHead=0;swimlaneBody=0;strokeColor=inherit;top=0;left=0;bottom=0;right=0;collapsible=0;dropTarget=0;fillColor=none;points=[[0,0.5],[1,0.5]];portConstraint=eastwest;fontSize=16;" parent="I_ms-DkJsqw6G00hhyOn-6" vertex="1">
          <mxGeometry y="120" width="190" height="40" as="geometry" />
        </mxCell>
        <mxCell id="I_ms-DkJsqw6G00hhyOn-14" value="&lt;font&gt;TD = 7 h&lt;/font&gt;" style="shape=partialRectangle;html=1;whiteSpace=wrap;connectable=0;strokeColor=inherit;overflow=hidden;fillColor=none;top=0;left=0;bottom=0;right=0;pointerEvents=1;align=left;fontSize=16;" parent="I_ms-DkJsqw6G00hhyOn-13" vertex="1">
          <mxGeometry width="190" height="40" as="geometry">
            <mxRectangle width="190" height="40" as="alternateBounds" />
          </mxGeometry>
        </mxCell>
        <mxCell id="I_ms-DkJsqw6G00hhyOn-15" value="" style="shape=tableRow;horizontal=0;startSize=0;swimlaneHead=0;swimlaneBody=0;strokeColor=inherit;top=0;left=0;bottom=0;right=0;collapsible=0;dropTarget=0;fillColor=none;points=[[0,0.5],[1,0.5]];portConstraint=eastwest;fontSize=16;" parent="I_ms-DkJsqw6G00hhyOn-6" vertex="1">
          <mxGeometry y="160" width="190" height="40" as="geometry" />
        </mxCell>
        <mxCell id="I_ms-DkJsqw6G00hhyOn-16" value="&lt;font&gt;TURNOS = 1&lt;/font&gt;" style="shape=partialRectangle;html=1;whiteSpace=wrap;connectable=0;strokeColor=inherit;overflow=hidden;fillColor=none;top=0;left=0;bottom=0;right=0;pointerEvents=1;align=left;fontSize=16;" parent="I_ms-DkJsqw6G00hhyOn-15" vertex="1">
          <mxGeometry width="190" height="40" as="geometry">
            <mxRectangle width="190" height="40" as="alternateBounds" />
          </mxGeometry>
        </mxCell>
        <mxCell id="I_ms-DkJsqw6G00hhyOn-17" value="" style="shape=tableRow;horizontal=0;startSize=0;swimlaneHead=0;swimlaneBody=0;strokeColor=inherit;top=0;left=0;bottom=0;right=0;collapsible=0;dropTarget=0;fillColor=none;points=[[0,0.5],[1,0.5]];portConstraint=eastwest;fontSize=16;" parent="I_ms-DkJsqw6G00hhyOn-6" vertex="1">
          <mxGeometry y="200" width="190" height="40" as="geometry" />
        </mxCell>
        <mxCell id="I_ms-DkJsqw6G00hhyOn-18" value="&lt;font&gt;OPERARIOS = 0&lt;/font&gt;" style="shape=partialRectangle;html=1;whiteSpace=wrap;connectable=0;strokeColor=inherit;overflow=hidden;fillColor=none;top=0;left=0;bottom=0;right=0;pointerEvents=1;align=left;fontSize=16;" parent="I_ms-DkJsqw6G00hhyOn-17" vertex="1">
          <mxGeometry width="190" height="40" as="geometry">
            <mxRectangle width="190" height="40" as="alternateBounds" />
          </mxGeometry>
        </mxCell>
        <mxCell id="I_ms-DkJsqw6G00hhyOn-19" value="" style="shape=tableRow;horizontal=0;startSize=0;swimlaneHead=0;swimlaneBody=0;strokeColor=inherit;top=0;left=0;bottom=0;right=0;collapsible=0;dropTarget=0;fillColor=none;points=[[0,0.5],[1,0.5]];portConstraint=eastwest;fontSize=16;" parent="I_ms-DkJsqw6G00hhyOn-6" vertex="1">
          <mxGeometry y="240" width="190" height="40" as="geometry" />
        </mxCell>
        <mxCell id="I_ms-DkJsqw6G00hhyOn-20" value="&lt;font&gt;CANT MAQUINA = 1&lt;/font&gt;" style="shape=partialRectangle;html=1;whiteSpace=wrap;connectable=0;strokeColor=inherit;overflow=hidden;fillColor=none;top=0;left=0;bottom=0;right=0;pointerEvents=1;align=left;fontSize=16;" parent="I_ms-DkJsqw6G00hhyOn-19" vertex="1">
          <mxGeometry width="190" height="40" as="geometry">
            <mxRectangle width="190" height="40" as="alternateBounds" />
          </mxGeometry>
        </mxCell>
        <mxCell id="zPLBz5L4oCSuRYGXghL--1" value="&lt;span style=&quot;color: rgb(0, 0, 0); font-family: Helvetica; font-style: normal; font-variant-ligatures: normal; font-variant-caps: normal; font-weight: 400; letter-spacing: normal; orphans: 2; text-align: left; text-indent: 0px; text-transform: none; widows: 2; word-spacing: 0px; -webkit-text-stroke-width: 0px; white-space: normal; background-color: rgb(251, 251, 251); text-decoration-thickness: initial; text-decoration-style: initial; text-decoration-color: initial; float: none; display: inline !important;&quot;&gt;4,61 kg&lt;/span&gt;" style="text;whiteSpace=wrap;html=1;fontSize=16;" parent="1" vertex="1">
          <mxGeometry x="127.5" y="1012" width="55.5" height="40" as="geometry" />
        </mxCell>
        <mxCell id="zPLBz5L4oCSuRYGXghL--3" value="&lt;span style=&quot;color: rgb(0, 0, 0); font-family: Helvetica; font-style: normal; font-variant-ligatures: normal; font-variant-caps: normal; font-weight: 400; letter-spacing: normal; orphans: 2; text-align: left; text-indent: 0px; text-transform: none; widows: 2; word-spacing: 0px; -webkit-text-stroke-width: 0px; white-space: normal; background-color: rgb(251, 251, 251); text-decoration-thickness: initial; text-decoration-style: initial; text-decoration-color: initial; float: none; display: inline !important;&quot;&gt;4,61 kg&lt;/span&gt;" style="text;whiteSpace=wrap;html=1;fontSize=16;" parent="1" vertex="1">
          <mxGeometry x="527.5" y="1012" width="55.5" height="40" as="geometry" />
        </mxCell>
        <mxCell id="zPLBz5L4oCSuRYGXghL--4" value="&lt;span style=&quot;color: rgb(0, 0, 0); font-family: Helvetica; font-style: normal; font-variant-ligatures: normal; font-variant-caps: normal; font-weight: 400; letter-spacing: normal; orphans: 2; text-align: left; text-indent: 0px; text-transform: none; widows: 2; word-spacing: 0px; -webkit-text-stroke-width: 0px; white-space: normal; background-color: rgb(251, 251, 251); text-decoration-thickness: initial; text-decoration-style: initial; text-decoration-color: initial; float: none; display: inline !important;&quot;&gt;4,57 kg&lt;/span&gt;" style="text;whiteSpace=wrap;html=1;fontSize=16;" parent="1" vertex="1">
          <mxGeometry x="926.5" y="1012" width="58.5" height="40" as="geometry" />
        </mxCell>
        <mxCell id="zPLBz5L4oCSuRYGXghL--5" value="&lt;span style=&quot;color: rgb(0, 0, 0); font-family: Helvetica; font-style: normal; font-variant-ligatures: normal; font-variant-caps: normal; font-weight: 400; letter-spacing: normal; orphans: 2; text-align: left; text-indent: 0px; text-transform: none; widows: 2; word-spacing: 0px; -webkit-text-stroke-width: 0px; white-space: normal; background-color: rgb(251, 251, 251); text-decoration-thickness: initial; text-decoration-style: initial; text-decoration-color: initial; float: none; display: inline !important;&quot;&gt;4,57 kg&lt;/span&gt;" style="text;whiteSpace=wrap;html=1;fontSize=16;" parent="1" vertex="1">
          <mxGeometry x="1327.5" y="1012" width="55.5" height="40" as="geometry" />
        </mxCell>
        <mxCell id="zPLBz5L4oCSuRYGXghL--6" value="&lt;span style=&quot;color: rgb(0, 0, 0); font-family: Helvetica; font-style: normal; font-variant-ligatures: normal; font-variant-caps: normal; font-weight: 400; letter-spacing: normal; orphans: 2; text-align: left; text-indent: 0px; text-transform: none; widows: 2; word-spacing: 0px; -webkit-text-stroke-width: 0px; white-space: normal; background-color: rgb(251, 251, 251); text-decoration-thickness: initial; text-decoration-style: initial; text-decoration-color: initial; float: none; display: inline !important;&quot;&gt;4,66 kg&lt;/span&gt;" style="text;whiteSpace=wrap;html=1;fontSize=16;" parent="1" vertex="1">
          <mxGeometry x="2130" y="1012" width="56.5" height="40" as="geometry" />
        </mxCell>
        <mxCell id="zPLBz5L4oCSuRYGXghL--7" value="&lt;span style=&quot;color: rgb(0, 0, 0); font-family: Helvetica; font-style: normal; font-variant-ligatures: normal; font-variant-caps: normal; font-weight: 400; letter-spacing: normal; orphans: 2; text-align: left; text-indent: 0px; text-transform: none; widows: 2; word-spacing: 0px; -webkit-text-stroke-width: 0px; white-space: normal; background-color: rgb(251, 251, 251); text-decoration-thickness: initial; text-decoration-style: initial; text-decoration-color: initial; float: none; display: inline !important;&quot;&gt;6,33 kg&lt;/span&gt;" style="text;whiteSpace=wrap;html=1;fontSize=16;" parent="1" vertex="1">
          <mxGeometry x="2526" y="1012" width="60" height="40" as="geometry" />
        </mxCell>
        <mxCell id="zPLBz5L4oCSuRYGXghL--8" value="&lt;span style=&quot;color: rgb(0, 0, 0); font-family: Helvetica; font-style: normal; font-variant-ligatures: normal; font-variant-caps: normal; font-weight: 400; letter-spacing: normal; orphans: 2; text-align: left; text-indent: 0px; text-transform: none; widows: 2; word-spacing: 0px; -webkit-text-stroke-width: 0px; white-space: normal; background-color: rgb(251, 251, 251); text-decoration-thickness: initial; text-decoration-style: initial; text-decoration-color: initial; float: none; display: inline !important;&quot;&gt;146,6 kg&lt;/span&gt;" style="text;whiteSpace=wrap;html=1;fontSize=16;" parent="1" vertex="1">
          <mxGeometry x="2922" y="1012" width="69" height="40" as="geometry" />
        </mxCell>
        <mxCell id="zPLBz5L4oCSuRYGXghL--9" value="&lt;font&gt;3 h&lt;/font&gt;" style="text;html=1;align=center;verticalAlign=middle;whiteSpace=wrap;rounded=0;fontSize=16;" parent="1" vertex="1">
          <mxGeometry x="74" y="1440" width="150" height="30" as="geometry" />
        </mxCell>
        <mxCell id="zPLBz5L4oCSuRYGXghL--10" value="&lt;font&gt;3 h&lt;/font&gt;" style="text;html=1;align=center;verticalAlign=middle;whiteSpace=wrap;rounded=0;fontSize=16;" parent="1" vertex="1">
          <mxGeometry x="478" y="1440" width="150" height="30" as="geometry" />
        </mxCell>
        <mxCell id="zPLBz5L4oCSuRYGXghL--11" value="&lt;font&gt;2,61 h&lt;/font&gt;" style="text;html=1;align=center;verticalAlign=middle;whiteSpace=wrap;rounded=0;fontSize=16;" parent="1" vertex="1">
          <mxGeometry x="863" y="1440" width="180" height="30" as="geometry" />
        </mxCell>
        <mxCell id="zPLBz5L4oCSuRYGXghL--12" value="&lt;span&gt;1,96 h&lt;/span&gt;" style="text;html=1;align=center;verticalAlign=middle;whiteSpace=wrap;rounded=0;fontSize=16;" parent="1" vertex="1">
          <mxGeometry x="1264" y="1440" width="180" height="30" as="geometry" />
        </mxCell>
        <mxCell id="zPLBz5L4oCSuRYGXghL--14" value="&lt;span&gt;1,96 h&lt;/span&gt;" style="text;html=1;align=center;verticalAlign=middle;whiteSpace=wrap;rounded=0;fontSize=16;" parent="1" vertex="1">
          <mxGeometry x="1664" y="1440" width="180" height="30" as="geometry" />
        </mxCell>
        <mxCell id="zPLBz5L4oCSuRYGXghL--15" value="15,6 min" style="text;html=1;align=center;verticalAlign=middle;whiteSpace=wrap;rounded=0;fontSize=16;" parent="1" vertex="1">
          <mxGeometry x="2068" y="1437" width="180" height="30" as="geometry" />
        </mxCell>
        <mxCell id="zPLBz5L4oCSuRYGXghL--16" value="&lt;font&gt;1,25 h&lt;/font&gt;" style="text;html=1;align=center;verticalAlign=middle;whiteSpace=wrap;rounded=0;fontSize=16;" parent="1" vertex="1">
          <mxGeometry x="2467" y="1437" width="180" height="30" as="geometry" />
        </mxCell>
        <mxCell id="zPLBz5L4oCSuRYGXghL--17" value="&lt;font&gt;1,05 h&lt;/font&gt;" style="text;html=1;align=center;verticalAlign=middle;whiteSpace=wrap;rounded=0;fontSize=16;" parent="1" vertex="1">
          <mxGeometry x="2663" y="1340" width="180" height="30" as="geometry" />
        </mxCell>
        <mxCell id="WGIT739zxYgLr6V6cY0--2" value="&lt;font&gt;Masa barco: 0.115 kg, Masa moto: 0.155 kg, Masa casa: 0.512 kg&amp;nbsp;&lt;/font&gt;" style="text;html=1;align=left;verticalAlign=middle;whiteSpace=wrap;rounded=0;fontSize=16;" parent="1" vertex="1">
          <mxGeometry x="-166" y="1500" width="730" height="30" as="geometry" />
        </mxCell>
        <mxCell id="FhXdsEAeTxi8pYCRALSn-2" value="2157,60 Kg" style="verticalLabelPosition=bottom;html=1;verticalAlign=top;strokeWidth=2;shape=mxgraph.lean_mapping.inventory_box;fontSize=16;" parent="1" vertex="1">
          <mxGeometry x="-174" y="569" width="100" height="90" as="geometry" />
        </mxCell>
        <mxCell id="FhXdsEAeTxi8pYCRALSn-12" value="" style="verticalLabelPosition=bottom;html=1;verticalAlign=top;strokeWidth=2;shape=mxgraph.lean_mapping.push_arrow;fontSize=16;" parent="1" vertex="1">
          <mxGeometry x="1671" y="855" width="167" height="30" as="geometry" />
        </mxCell>
        <mxCell id="FhXdsEAeTxi8pYCRALSn-13" value="Un operario verifica los acabados y las piezas móviles" style="strokeWidth=2;html=1;shape=mxgraph.lean_mapping.manufacturing_process;fontSize=16;verticalAlign=middle;html=1;align=center;whiteSpace=wrap;" parent="1" vertex="1">
          <mxGeometry x="1440" y="800" width="230" height="140" as="geometry" />
        </mxCell>
        <mxCell id="FhXdsEAeTxi8pYCRALSn-14" value="Calidad" style="text;fontSize=16;spacingLeft=2;verticalAlign=top;html=1;align=center;spacingTop=-5;resizeWidth=1;whiteSpace=wrap;" parent="FhXdsEAeTxi8pYCRALSn-13" vertex="1">
          <mxGeometry width="230" height="50" as="geometry" />
        </mxCell>
        <mxCell id="FhXdsEAeTxi8pYCRALSn-16" value="" style="shape=table;startSize=0;container=1;collapsible=0;childLayout=tableLayout;fontSize=16;" parent="1" vertex="1">
          <mxGeometry x="1461" y="1008" width="190" height="280" as="geometry" />
        </mxCell>
        <mxCell id="FhXdsEAeTxi8pYCRALSn-17" value="" style="shape=tableRow;horizontal=0;startSize=0;swimlaneHead=0;swimlaneBody=0;strokeColor=inherit;top=0;left=0;bottom=0;right=0;collapsible=0;dropTarget=0;fillColor=none;points=[[0,0.5],[1,0.5]];portConstraint=eastwest;fontSize=16;" parent="FhXdsEAeTxi8pYCRALSn-16" vertex="1">
          <mxGeometry width="190" height="40" as="geometry" />
        </mxCell>
        <mxCell id="FhXdsEAeTxi8pYCRALSn-18" value="&lt;font&gt;TC = 165 s/u&lt;/font&gt;" style="shape=partialRectangle;html=1;whiteSpace=wrap;connectable=0;strokeColor=inherit;overflow=hidden;fillColor=none;top=0;left=0;bottom=0;right=0;pointerEvents=1;align=left;fontSize=16;" parent="FhXdsEAeTxi8pYCRALSn-17" vertex="1">
          <mxGeometry width="190" height="40" as="geometry">
            <mxRectangle width="190" height="40" as="alternateBounds" />
          </mxGeometry>
        </mxCell>
        <mxCell id="FhXdsEAeTxi8pYCRALSn-19" value="" style="shape=tableRow;horizontal=0;startSize=0;swimlaneHead=0;swimlaneBody=0;strokeColor=inherit;top=0;left=0;bottom=0;right=0;collapsible=0;dropTarget=0;fillColor=none;points=[[0,0.5],[1,0.5]];portConstraint=eastwest;fontSize=16;" parent="FhXdsEAeTxi8pYCRALSn-16" vertex="1">
          <mxGeometry y="40" width="190" height="40" as="geometry" />
        </mxCell>
        <mxCell id="FhXdsEAeTxi8pYCRALSn-20" value="&lt;font&gt;TCP = 1 s/u&lt;/font&gt;" style="shape=partialRectangle;html=1;whiteSpace=wrap;connectable=0;strokeColor=inherit;overflow=hidden;fillColor=none;top=0;left=0;bottom=0;right=0;pointerEvents=1;align=left;fontSize=16;" parent="FhXdsEAeTxi8pYCRALSn-19" vertex="1">
          <mxGeometry width="190" height="40" as="geometry">
            <mxRectangle width="190" height="40" as="alternateBounds" />
          </mxGeometry>
        </mxCell>
        <mxCell id="FhXdsEAeTxi8pYCRALSn-21" value="" style="shape=tableRow;horizontal=0;startSize=0;swimlaneHead=0;swimlaneBody=0;strokeColor=inherit;top=0;left=0;bottom=0;right=0;collapsible=0;dropTarget=0;fillColor=none;points=[[0,0.5],[1,0.5]];portConstraint=eastwest;fontSize=16;" parent="FhXdsEAeTxi8pYCRALSn-16" vertex="1">
          <mxGeometry y="80" width="190" height="40" as="geometry" />
        </mxCell>
        <mxCell id="FhXdsEAeTxi8pYCRALSn-22" value="&lt;font&gt;DISP = 97,22%&lt;/font&gt;" style="shape=partialRectangle;html=1;whiteSpace=wrap;connectable=0;strokeColor=inherit;overflow=hidden;fillColor=none;top=0;left=0;bottom=0;right=0;pointerEvents=1;align=left;fontSize=16;" parent="FhXdsEAeTxi8pYCRALSn-21" vertex="1">
          <mxGeometry width="190" height="40" as="geometry">
            <mxRectangle width="190" height="40" as="alternateBounds" />
          </mxGeometry>
        </mxCell>
        <mxCell id="FhXdsEAeTxi8pYCRALSn-23" value="" style="shape=tableRow;horizontal=0;startSize=0;swimlaneHead=0;swimlaneBody=0;strokeColor=inherit;top=0;left=0;bottom=0;right=0;collapsible=0;dropTarget=0;fillColor=none;points=[[0,0.5],[1,0.5]];portConstraint=eastwest;fontSize=16;" parent="FhXdsEAeTxi8pYCRALSn-16" vertex="1">
          <mxGeometry y="120" width="190" height="40" as="geometry" />
        </mxCell>
        <mxCell id="FhXdsEAeTxi8pYCRALSn-24" value="&lt;span&gt;TD = 7 h&lt;/span&gt;" style="shape=partialRectangle;html=1;whiteSpace=wrap;connectable=0;strokeColor=inherit;overflow=hidden;fillColor=none;top=0;left=0;bottom=0;right=0;pointerEvents=1;align=left;fontSize=16;" parent="FhXdsEAeTxi8pYCRALSn-23" vertex="1">
          <mxGeometry width="190" height="40" as="geometry">
            <mxRectangle width="190" height="40" as="alternateBounds" />
          </mxGeometry>
        </mxCell>
        <mxCell id="FhXdsEAeTxi8pYCRALSn-25" value="" style="shape=tableRow;horizontal=0;startSize=0;swimlaneHead=0;swimlaneBody=0;strokeColor=inherit;top=0;left=0;bottom=0;right=0;collapsible=0;dropTarget=0;fillColor=none;points=[[0,0.5],[1,0.5]];portConstraint=eastwest;fontSize=16;" parent="FhXdsEAeTxi8pYCRALSn-16" vertex="1">
          <mxGeometry y="160" width="190" height="40" as="geometry" />
        </mxCell>
        <mxCell id="FhXdsEAeTxi8pYCRALSn-26" value="&lt;font&gt;TURNOS = 1&lt;/font&gt;" style="shape=partialRectangle;html=1;whiteSpace=wrap;connectable=0;strokeColor=inherit;overflow=hidden;fillColor=none;top=0;left=0;bottom=0;right=0;pointerEvents=1;align=left;fontSize=16;" parent="FhXdsEAeTxi8pYCRALSn-25" vertex="1">
          <mxGeometry width="190" height="40" as="geometry">
            <mxRectangle width="190" height="40" as="alternateBounds" />
          </mxGeometry>
        </mxCell>
        <mxCell id="FhXdsEAeTxi8pYCRALSn-27" value="" style="shape=tableRow;horizontal=0;startSize=0;swimlaneHead=0;swimlaneBody=0;strokeColor=inherit;top=0;left=0;bottom=0;right=0;collapsible=0;dropTarget=0;fillColor=none;points=[[0,0.5],[1,0.5]];portConstraint=eastwest;fontSize=16;" parent="FhXdsEAeTxi8pYCRALSn-16" vertex="1">
          <mxGeometry y="200" width="190" height="40" as="geometry" />
        </mxCell>
        <mxCell id="FhXdsEAeTxi8pYCRALSn-28" value="&lt;font&gt;OPERARIOS = 1&lt;/font&gt;" style="shape=partialRectangle;html=1;whiteSpace=wrap;connectable=0;strokeColor=inherit;overflow=hidden;fillColor=none;top=0;left=0;bottom=0;right=0;pointerEvents=1;align=left;fontSize=16;" parent="FhXdsEAeTxi8pYCRALSn-27" vertex="1">
          <mxGeometry width="190" height="40" as="geometry">
            <mxRectangle width="190" height="40" as="alternateBounds" />
          </mxGeometry>
        </mxCell>
        <mxCell id="FhXdsEAeTxi8pYCRALSn-29" value="" style="shape=tableRow;horizontal=0;startSize=0;swimlaneHead=0;swimlaneBody=0;strokeColor=inherit;top=0;left=0;bottom=0;right=0;collapsible=0;dropTarget=0;fillColor=none;points=[[0,0.5],[1,0.5]];portConstraint=eastwest;fontSize=16;" parent="FhXdsEAeTxi8pYCRALSn-16" vertex="1">
          <mxGeometry y="240" width="190" height="40" as="geometry" />
        </mxCell>
        <mxCell id="FhXdsEAeTxi8pYCRALSn-30" value="&lt;font&gt;CANT MAQUINA = 0&lt;/font&gt;" style="shape=partialRectangle;html=1;whiteSpace=wrap;connectable=0;strokeColor=inherit;overflow=hidden;fillColor=none;top=0;left=0;bottom=0;right=0;pointerEvents=1;align=left;fontSize=16;" parent="FhXdsEAeTxi8pYCRALSn-29" vertex="1">
          <mxGeometry width="190" height="40" as="geometry">
            <mxRectangle width="190" height="40" as="alternateBounds" />
          </mxGeometry>
        </mxCell>
        <mxCell id="FhXdsEAeTxi8pYCRALSn-31" value="" style="verticalLabelPosition=bottom;html=1;verticalAlign=top;strokeWidth=2;shape=mxgraph.lean_mapping.inventory_box;fontSize=16;" parent="1" vertex="1">
          <mxGeometry x="1706" y="920" width="100" height="90" as="geometry" />
        </mxCell>
        <mxCell id="FhXdsEAeTxi8pYCRALSn-32" value="&lt;span style=&quot;color: rgb(0, 0, 0); font-family: Helvetica; font-style: normal; font-variant-ligatures: normal; font-variant-caps: normal; font-weight: 400; letter-spacing: normal; orphans: 2; text-align: left; text-indent: 0px; text-transform: none; widows: 2; word-spacing: 0px; -webkit-text-stroke-width: 0px; white-space: normal; background-color: rgb(251, 251, 251); text-decoration-thickness: initial; text-decoration-style: initial; text-decoration-color: initial; float: none; display: inline !important;&quot;&gt;4,66 kg&lt;/span&gt;" style="text;whiteSpace=wrap;html=1;fontSize=16;" parent="1" vertex="1">
          <mxGeometry x="1730" y="1012" width="56.5" height="40" as="geometry" />
        </mxCell>
        <mxCell id="FhXdsEAeTxi8pYCRALSn-35" value="" style="verticalLabelPosition=bottom;html=1;verticalAlign=top;strokeWidth=2;shape=mxgraph.lean_mapping.timeline2;dx1=0;dy1=1;dx2=30;dy2=0;dx3=218.559;dy3=0.574;dx4=427.754;dy4=0;dx5=623.534;dy5=0.557;dy6=1;fontSize=16;" parent="1" vertex="1">
          <mxGeometry x="2632" y="1380" width="637" height="90" as="geometry" />
        </mxCell>
        <mxCell id="FhXdsEAeTxi8pYCRALSn-37" value="&lt;font&gt;0&lt;/font&gt;" style="text;html=1;align=center;verticalAlign=middle;whiteSpace=wrap;rounded=0;fontSize=16;" parent="1" vertex="1">
          <mxGeometry x="2864" y="1437" width="180" height="30" as="geometry" />
        </mxCell>
        <mxCell id="FhXdsEAeTxi8pYCRALSn-38" value="&lt;font&gt;2,11 min&lt;/font&gt;" style="text;html=1;align=center;verticalAlign=middle;whiteSpace=wrap;rounded=0;fontSize=16;" parent="1" vertex="1">
          <mxGeometry x="4370" y="1698" width="180" height="30" as="geometry" />
        </mxCell>
        <mxCell id="FhXdsEAeTxi8pYCRALSn-39" value="&lt;font&gt;2,67 min&lt;/font&gt;" style="text;html=1;align=center;verticalAlign=middle;whiteSpace=wrap;rounded=0;fontSize=16;" parent="1" vertex="1">
          <mxGeometry x="3068" y="1340" width="180" height="30" as="geometry" />
        </mxCell>
      </root>
    </mxGraphModel>
  </diagram>
</mxfile>
